# https://github.com/mikedh/trimesh
v -0.04932600 -0.01140900 -0.02631100
v -0.00317400 -0.00815200 0.00901200
v -0.04350800 -0.02959400 -0.02038700
v -0.05522400 -0.02844900 -0.01555100
v 0.00565200 -0.00378200 0.01611500
v -0.01033400 -0.02043600 0.02169700
v 0.02962500 -0.00414100 -0.02189600
v -0.00842300 -0.00077000 0.02195800
v -0.04394100 -0.02776000 -0.02302100
v 0.05034900 -0.01327300 0.00713800
v -0.06500800 0.02791900 -0.01140600
v -0.06397200 0.00029700 -0.01143200
v -0.01389000 -0.01012200 0.02661100
v 0.07520200 -0.01178800 0.00662800
v -0.05693000 -0.03056300 -0.01048900
v -0.02132300 0.00154200 0.03187400
v -0.02741000 -0.01135100 -0.02913200
v -0.00690200 -0.02892000 0.00594800
v -0.06387200 0.01512000 -0.00731100
v -0.03319300 -0.02674500 -0.02599400
v -0.04074100 0.01678900 -0.02809200
v 0.00283400 -0.01815200 -0.00727500
v -0.00433400 -0.00857700 -0.00705000
v -0.01460300 -0.03034600 -0.01784200
v -0.05135600 0.02246800 -0.02254300
v -0.00797600 0.00023500 -0.01049600
v -0.02764800 0.02707800 0.00770700
v 0.00245100 -0.01008500 -0.01718800
v 0.06660200 -0.00371000 0.01111300
v -0.06643900 -0.01191100 -0.00374000
v 0.01363200 -0.01543900 -0.01373400
v 0.01381000 -0.01886400 -0.00445100
v -0.00661000 -0.02054900 -0.00319100
v -0.00373500 -0.01409300 -0.00449900
v 0.02970700 -0.01873700 -0.00324600
v -0.06620600 0.02456300 -0.00155500
v -0.00991100 -0.00998600 -0.01302100
v -0.00298700 0.00819200 -0.00615200
v -0.06626200 0.01783700 -0.00299400
v -0.06046600 0.03008700 -0.00194400
v -0.06702000 0.00074300 0.01022300
v -0.06406300 0.02332400 0.00972900
v -0.06650300 0.00822600 0.00998600
v -0.06757000 -0.00884900 0.00553700
v -0.06509500 -0.01197500 0.01269200
v -0.06568800 -0.01997100 0.00385500
v 0.07930300 -0.00216300 0.00976800
v -0.06793200 0.01225900 0.00782700
v -0.01184400 0.01415900 -0.01829600
v -0.00137500 -0.00335200 -0.01629100
v -0.06159300 0.02962300 0.00765900
v -0.05370900 0.02480400 0.01943100
v -0.00502800 -0.01611700 0.00387700
v -0.05687700 0.00842700 -0.02119400
v -0.03933900 0.02693800 0.02671800
v -0.05782800 -0.02314800 0.01893800
v 0.01868900 0.00770300 0.01334300
v -0.05758600 -0.03116400 0.01025000
v -0.06308400 0.01083900 0.01445300
v -0.04210000 0.02447000 -0.02576500
v -0.02043300 -0.02710300 0.02215200
v -0.05236900 -0.00326800 0.02894300
v -0.05218700 0.01423300 0.02586900
v 0.01811600 -0.00880800 -0.01943600
v 0.07551700 -0.00690400 -0.02491800
v -0.00291200 0.00011600 -0.00903600
v -0.06300300 -0.00575100 0.01855600
v 0.07155200 0.00831300 0.00881500
v -0.03213000 -0.03110900 0.00121200
v -0.03244200 0.00093000 -0.03066000
v -0.05439500 0.02703300 -0.02046300
v -0.02580300 0.02709400 -0.01362500
v 0.08289300 -0.00690000 -0.01622100
v 0.00486000 -0.01746700 0.00496200
v 0.01964800 -0.01691300 0.00536800
v -0.01098400 -0.02387500 -0.01526400
v 0.04951500 -0.00173100 -0.02407000
v 0.07809000 -0.01785100 -0.01247300
v -0.01881800 -0.01619900 -0.02464100
v 0.08370600 0.00147600 0.00076800
v -0.00620500 0.02617300 -0.00281800
v 0.04580600 0.00815200 0.01073000
v 0.01993400 0.00154400 -0.02105300
v -0.00467800 0.01535500 0.00613600
v 0.02479500 0.01040400 -0.01753700
v -0.04432600 -0.02905700 0.02682200
v -0.00374800 0.01177700 -0.00315200
v 0.04284400 0.00691500 -0.02149600
v -0.00827500 -0.02530500 0.01712200
v -0.02438300 -0.02944000 -0.02280500
v -0.00333800 0.00253000 0.00742400
v 0.02470000 0.01411500 0.00637200
v 0.07606800 0.00262800 -0.02553700
v -0.02274100 -0.02266200 0.03059200
v 0.06649000 0.00805700 -0.02358000
v 0.04043100 0.01389300 -0.01526000
v 0.07881500 0.00493700 -0.02329000
v 0.05992600 0.01496700 0.00268800
v 0.07770700 0.01360500 0.00356600
v 0.07653600 0.01574000 -0.01607300
v 0.04019500 -0.00880500 0.01137100
v -0.03087700 -0.02683200 0.03063000
v -0.00678700 0.02649100 0.00848700
v -0.04342000 -0.01544700 0.03240600
v 0.02914800 -0.01550700 -0.01520600
v 0.00221300 0.00104000 -0.01938900
v -0.02590100 0.02384700 -0.02402200
v -0.00296200 0.00954200 0.00711100
v -0.00883200 0.02580700 -0.01521300
v 0.00451000 0.01513500 0.00483200
v 0.01167700 0.00591000 -0.01853400
v 0.07886000 -0.01230700 -0.02051700
v 0.03574700 -0.01775400 -0.01135200
v -0.02071900 0.02702900 0.02214200
v -0.00031100 0.00940300 -0.01402300
v -0.04534600 0.00296000 0.03231900
v -0.03116600 0.01449700 0.03218200
v 0.06282900 0.01635600 -0.01365000
v 0.08282700 0.00113400 -0.01693900
v 0.06161600 -0.01596200 -0.01663000
v 0.05047900 0.01721400 -0.00559400
v 0.08085900 0.01175300 -0.01353700
v 0.04675800 0.01600100 0.00141400
v 0.00490300 -0.01209000 0.01254400
v 0.04340900 0.00018200 0.01313900
v 0.07824600 0.01691700 -0.00564100
v 0.04143800 -0.00889400 -0.02158800
v 0.00469700 0.00562400 0.01503200
v -0.03253300 -0.00859800 0.03432700
v 0.07589400 -0.01694400 0.00005600
v 0.05353200 -0.01794900 -0.00071200
v 0.08424200 -0.00095200 -0.00940400
v 0.06481000 -0.01851800 -0.00338800
v 0.05281300 -0.00983500 -0.02224800
v -0.05872400 -0.01335800 -0.01821500
v -0.05800600 0.02093300 -0.01486900
v 0.08255900 0.00816100 0.00221900
v -0.01044400 0.01419900 0.02135500
v -0.02427300 0.00873700 -0.02841300
v 0.04521400 -0.01486600 -0.01685300
v 0.03265500 0.01617700 -0.00959000
v 0.08256300 -0.01103800 0.00104000
v 0.01165500 0.01369500 -0.01225500
v 0.02624300 0.01623200 -0.00135600
v 0.04922800 -0.01827100 -0.00977000
v -0.01548500 -0.01026000 -0.02362600
v 0.00274600 0.01556200 -0.00448700
v -0.01490800 0.00182400 -0.02427800
v -0.06701300 0.00173800 -0.00443700
v 0.03466000 -0.01612000 0.00541300
v -0.04671100 0.00051300 -0.02811900
v -0.03736100 -0.01198300 -0.02982800
vn -0.46593904 -0.16800371 -0.86872065
vn 0.31419549 -0.24588010 0.91696465
vn -0.11196362 -0.93052524 -0.34869317
vn -0.59488294 -0.56099102 -0.57567644
vn -0.24444820 -0.11963120 0.96225436
vn 0.70262000 -0.28638275 0.65139086
vn -0.09815681 -0.13587758 -0.98585117
vn 0.80497946 0.03541487 0.59224476
vn -0.28504198 -0.57980414 -0.76326813
vn 0.08381382 -0.70330416 0.70593095
vn -0.75222147 0.47445977 -0.45722071
vn -0.87446603 0.01581346 -0.48482894
vn 0.61431382 -0.07120688 0.78584229
vn 0.26222787 -0.60843198 0.74903076
vn -0.54598684 -0.79548326 -0.26287782
vn 0.40231763 0.10054996 0.90996167
vn 0.25031061 -0.14785690 -0.95680872
vn 0.69639506 -0.71390453 0.07330925
vn -0.88951895 0.10012025 -0.44579364
vn -0.00554697 -0.53702255 -0.84354965
vn -0.17158408 0.21590085 -0.96122096
vn -0.29929529 -0.90190796 -0.31142312
vn -0.12453266 -0.28280713 -0.95105822
vn 0.49108814 -0.66149440 -0.56679590
vn -0.50109554 0.08632851 -0.86107528
vn 0.69443300 -0.03139137 -0.71887231
vn 0.04902805 0.99873981 0.01072601
vn -0.41666008 -0.47750286 -0.77355375
vn 0.08504923 -0.15357275 0.98447044
vn -0.95118677 -0.18200902 -0.24923170
vn -0.06393248 -0.80676775 -0.58739972
vn -0.00531783 -0.99697458 -0.07754621
vn 0.93121615 -0.27003939 -0.24477585
vn 0.04395884 -0.77005916 -0.63645621
vn -0.00350471 -0.99963862 0.02665249
vn -0.94394195 0.32240156 0.07092836
vn 0.85054749 -0.06583988 -0.52176056
vn -0.26443841 0.32304613 -0.90868780
vn -0.96792751 -0.09661905 -0.23190749
vn -0.28483283 0.95848171 -0.01353044
vn -0.96116947 0.04003895 0.27303870
vn -0.83559621 0.31927562 0.44703697
vn -0.91867760 -0.01573768 0.39469456
vn -0.97104214 -0.21892200 0.09565726
vn -0.91567219 -0.18391199 0.35738050
vn -0.93936577 -0.33936630 0.04921853
vn 0.54421917 -0.04586939 0.83768819
vn -0.97022352 0.06975896 0.23194829
vn 0.71733657 0.08806578 -0.69113867
vn -0.80894375 -0.08079161 -0.58230810
vn -0.49464668 0.82639581 0.26906249
vn -0.54597297 0.50691873 0.66704342
vn 0.67085724 -0.70863115 0.21861484
vn -0.69010382 0.11124577 -0.71510915
vn -0.10580262 0.76303188 0.63764266
vn -0.71238368 -0.38845819 0.58447388
vn 0.03736755 0.48683801 0.87269262
vn -0.50619977 -0.83882499 0.20033578
vn -0.76703935 0.15766028 0.62192754
vn -0.09555203 0.62795399 -0.77236235
vn 0.27749745 -0.88914714 0.36388531
vn -0.59057833 -0.01902673 0.80675598
vn -0.57035042 0.26738463 0.77666329
vn -0.08040010 -0.40005863 -0.91295614
vn 0.31882233 -0.29993028 -0.89910742
vn -0.57204344 0.11755371 -0.81175577
vn -0.80838854 -0.04506243 0.58692192
vn 0.17870503 0.43883623 0.88061755
vn 0.03853713 -0.99871346 0.03295913
vn 0.04541011 0.04033946 -0.99815362
vn -0.43762511 0.58956703 -0.67889247
vn 0.06010924 0.98682097 -0.15023734
vn 0.92002857 -0.20520387 -0.33382451
vn -0.08169151 -0.93221374 0.35256777
vn 0.02783269 -0.90808532 0.41785930
vn 0.83922919 -0.21085569 -0.50123272
vn -0.10354889 -0.05489173 -0.99310852
vn 0.47398551 -0.85429909 -0.21333260
vn 0.48131489 -0.23267840 -0.84510162
vn 0.97645121 0.05223946 0.20931812
vn 0.68555523 0.72483690 -0.06801107
vn 0.07883607 0.51912265 0.85105614
vn -0.04980593 0.15928705 -0.98597515
vn 0.96051281 0.21706537 0.17406254
vn -0.06537992 0.60690764 -0.79207865
vn -0.25352280 -0.76167219 0.59630669
vn 0.43673799 0.85180183 -0.28929840
vn -0.10849687 0.42390529 -0.89918448
vn 0.70472857 -0.54612726 0.45288260
vn 0.21665342 -0.74406403 -0.63200475
vn 0.23684113 0.08146742 0.96812672
vn 0.02456282 0.85960465 0.51036899
vn 0.34941512 0.15034750 -0.92482685
vn 0.39470040 -0.42559865 0.81429564
vn -0.02746334 0.50295751 -0.86387471
vn -0.04894651 0.82597530 -0.56157728
vn 0.63035404 0.25511581 -0.73319145
vn 0.02960594 0.87193490 0.48872592
vn 0.42100454 0.68497869 0.59460858
vn 0.34912622 0.81293396 -0.46610005
vn 0.07508573 -0.45056926 0.88957826
vn 0.09286962 -0.69511371 0.71287599
vn 0.66584459 0.71384820 0.21696021
vn -0.33210429 -0.19883674 0.92204701
vn -0.04003757 -0.79312187 -0.60774558
vn -0.39965970 0.13803150 -0.90621158
vn 0.22701149 0.65504605 -0.72068055
vn 0.40943035 0.61642352 0.67259857
vn 0.61482118 0.61266791 -0.49662154
vn -0.22569531 0.89716329 0.37968363
vn -0.11898202 0.48689553 -0.86531845
vn 0.52616768 -0.55147063 -0.64732350
vn -0.04774739 -0.92685658 -0.37236684
vn 0.30248001 0.79989774 0.51833333
vn -0.61055136 0.52234423 -0.59530123
vn -0.31194027 0.12296513 0.94211085
vn 0.11992084 0.29401196 0.94824889
vn -0.02988815 0.92381693 -0.38166607
vn 0.92246120 0.08716504 -0.37612177
vn -0.00527311 -0.86209478 -0.50671963
vn -0.02726619 0.99957454 -0.01035868
vn 0.86681721 0.44048638 -0.23366573
vn 0.00747916 0.92323541 0.38416201
vn -0.19626033 -0.56929420 0.79836458
vn 0.08913039 0.03598279 0.99536979
vn 0.49146504 0.86764306 0.07521719
vn -0.01022961 -0.49169391 -0.87070802
vn -0.29299007 0.36181655 0.88501164
vn 0.04702151 -0.04802172 0.99773889
vn 0.29254233 -0.87291149 0.39044143
vn 0.03124648 -0.95240506 0.30322971
vn 0.99826790 0.03542675 -0.04696966
vn 0.02923301 -0.98313253 0.18054323
vn -0.15198128 -0.47939372 -0.86433983
vn -0.76110081 -0.17888735 -0.62347805
vn -0.76762079 -0.05888883 -0.63819309
vn 0.85586529 0.34012021 0.38963169
vn 0.71136299 0.26426533 0.65124998
vn 0.32863594 0.18083552 -0.92698270
vn -0.07523726 -0.75562491 -0.65066915
vn -0.05206105 0.96467532 -0.25824636
vn 0.83500865 -0.44502236 0.32359798
vn -0.10205169 0.84711395 -0.52152028
vn -0.02880283 0.99654776 0.07786501
vn 0.00156884 -0.98003536 -0.19881707
vn 0.68035150 -0.09096158 -0.72721925
vn -0.29704731 0.94202178 -0.15607002
vn 0.67810364 0.02886213 -0.73439937
vn -0.97092596 0.04219282 -0.23563221
vn 0.04970618 -0.84406733 0.53392849
vn -0.37570758 0.03728707 -0.92598784
vn -0.12175234 -0.17334956 -0.97730563
f 135//135 4//4 15//15
f 8//8 6//6 2//2
f 5//5 2//2 124//124
f 6//6 8//8 13//13
f 20//20 9//9 1//1
f 30//30 12//12 135//135
f 15//15 30//30 135//135
f 124//124 101//101 5//5
f 4//4 135//135 1//1
f 16//16 94//94 13//13
f 34//34 28//28 22//22
f 125//125 5//5 101//101
f 10//10 14//14 29//29
f 12//12 19//19 54//54
f 76//76 33//33 18//18
f 50//50 28//28 34//34
f 16//16 129//129 94//94
f 34//34 23//23 50//50
f 20//20 152//152 17//17
f 29//29 101//101 10//10
f 77//77 7//7 88//88
f 22//22 28//28 31//31
f 7//7 77//77 127//127
f 26//26 66//66 23//23
f 71//71 40//40 72//72
f 90//90 69//69 3//3
f 76//76 146//146 37//37
f 40//40 27//27 72//72
f 64//64 31//31 28//28
f 148//148 49//49 26//26
f 30//30 149//149 12//12
f 3//3 15//15 4//4
f 31//31 32//32 22//22
f 127//127 113//113 105//105
f 113//113 127//127 140//140
f 39//39 136//136 19//19
f 39//39 11//11 136//136
f 22//22 53//53 34//34
f 152//152 20//20 1//1
f 33//33 34//34 53//53
f 113//113 140//140 145//145
f 39//39 36//36 11//11
f 75//75 32//32 35//35
f 40//40 11//11 36//36
f 149//149 48//48 19//19
f 9//9 4//4 1//1
f 19//19 48//48 39//39
f 47//47 29//29 14//14
f 36//36 39//39 42//42
f 36//36 51//51 40//40
f 37//37 148//148 26//26
f 3//3 9//9 20//20
f 51//51 36//36 42//42
f 43//43 149//149 41//41
f 48//48 149//149 43//43
f 58//58 46//46 15//15
f 115//115 38//38 87//87
f 42//42 59//59 52//52
f 61//61 69//69 18//18
f 30//30 15//15 46//46
f 51//51 42//42 52//52
f 152//152 1//1 151//151
f 92//92 57//57 82//82
f 48//48 42//42 39//39
f 71//71 136//136 11//11
f 107//107 72//72 109//109
f 53//53 22//22 74//74
f 59//59 42//42 48//48
f 55//55 51//51 52//52
f 44//44 149//149 30//30
f 44//44 30//30 45//45
f 109//109 49//49 107//107
f 17//17 152//152 70//70
f 59//59 43//43 41//41
f 74//74 32//32 75//75
f 59//59 41//41 67//67
f 111//111 83//83 106//106
f 43//43 59//59 48//48
f 61//61 86//86 69//69
f 149//149 44//44 41//41
f 40//40 51//51 55//55
f 115//115 106//106 50//50
f 151//151 21//21 70//70
f 63//63 52//52 59//59
f 53//53 18//18 33//33
f 46//46 45//45 30//30
f 58//58 56//56 46//46
f 138//138 16//16 8//8
f 66//66 115//115 50//50
f 128//128 5//5 57//57
f 22//22 32//32 74//74
f 55//55 52//52 63//63
f 54//54 60//60 21//21
f 60//60 54//54 25//25
f 35//35 150//150 75//75
f 46//46 56//56 45//45
f 67//67 63//63 59//59
f 18//18 89//89 61//61
f 69//69 15//15 3//3
f 68//68 98//98 82//82
f 111//111 106//106 115//115
f 65//65 93//93 73//73
f 69//69 58//58 15//15
f 54//54 135//135 12//12
f 63//63 67//67 62//62
f 116//116 63//63 62//62
f 136//136 71//71 25//25
f 115//115 66//66 38//38
f 6//6 61//61 89//89
f 67//67 44//44 45//45
f 44//44 67//67 41//41
f 65//65 73//73 112//112
f 24//24 18//18 69//69
f 79//79 20//20 17//17
f 20//20 90//90 3//3
f 56//56 67//67 45//45
f 21//21 151//151 54//54
f 147//147 143//143 115//115
f 83//83 85//85 7//7
f 148//148 139//139 49//49
f 85//85 88//88 7//7
f 55//55 116//116 117//117
f 35//35 131//131 150//150
f 67//67 56//56 62//62
f 117//117 116//116 129//129
f 87//87 38//38 49//49
f 90//90 20//20 79//79
f 86//86 56//56 58//58
f 89//89 18//18 53//53
f 49//49 139//139 107//107
f 109//109 87//87 49//49
f 106//106 28//28 50//50
f 65//65 77//77 93//93
f 60//60 72//72 107//107
f 58//58 69//69 86//86
f 150//150 124//124 75//75
f 142//142 130//130 78//78
f 77//77 88//88 95//95
f 73//73 132//132 142//142
f 142//142 132//132 80//80
f 18//18 24//24 76//76
f 60//60 25//25 71//71
f 87//87 109//109 81//81
f 111//111 143//143 85//85
f 87//87 147//147 115//115
f 147//147 87//87 110//110
f 72//72 60//60 71//71
f 50//50 23//23 66//66
f 56//56 104//104 62//62
f 53//53 124//124 2//2
f 76//76 37//37 33//33
f 2//2 89//89 53//53
f 27//27 103//103 81//81
f 26//26 23//23 37//37
f 87//87 84//84 108//108
f 87//87 108//108 110//110
f 133//133 14//14 131//131
f 95//95 97//97 93//93
f 5//5 125//125 57//57
f 96//96 95//95 88//88
f 101//101 124//124 150//150
f 93//93 77//77 95//95
f 56//56 86//86 104//104
f 129//129 116//116 104//104
f 87//87 81//81 84//84
f 6//6 89//89 2//2
f 118//118 95//95 96//96
f 21//21 60//60 107//107
f 121//121 118//118 96//96
f 141//141 144//144 123//123
f 125//125 29//29 82//82
f 121//121 141//141 123//123
f 100//100 97//97 95//95
f 104//104 116//116 62//62
f 93//93 97//97 119//119
f 123//123 144//144 92//92
f 27//27 40//40 55//55
f 103//103 84//84 81//81
f 73//73 93//93 119//119
f 120//120 112//112 78//78
f 95//95 118//118 100//100
f 77//77 134//134 140//140
f 91//91 2//2 128//128
f 123//123 92//92 82//82
f 90//90 24//24 69//69
f 103//103 27//27 114//114
f 25//25 54//54 136//136
f 68//68 99//99 98//98
f 65//65 134//134 77//77
f 33//33 37//37 34//34
f 37//37 23//23 34//34
f 105//105 31//31 64//64
f 104//104 86//86 102//102
f 102//102 86//86 61//61
f 136//136 54//54 19//19
f 55//55 63//63 116//116
f 71//71 11//11 40//40
f 138//138 84//84 103//103
f 78//78 133//133 120//120
f 109//109 72//72 81//81
f 27//27 55//55 114//114
f 104//104 102//102 129//129
f 114//114 55//55 117//117
f 138//138 8//8 108//108
f 138//138 108//108 84//84
f 110//110 108//108 128//128
f 97//97 100//100 122//122
f 94//94 102//102 61//61
f 31//31 105//105 32//32
f 38//38 26//26 49//49
f 72//72 27//27 81//81
f 105//105 113//113 35//35
f 32//32 105//105 35//35
f 128//128 108//108 91//91
f 64//64 28//28 106//106
f 111//111 115//115 143//143
f 16//16 13//13 8//8
f 97//97 122//122 119//119
f 128//128 57//57 110//110
f 120//120 134//134 65//65
f 120//120 65//65 112//112
f 73//73 78//78 112//112
f 122//122 132//132 119//119
f 74//74 124//124 53//53
f 98//98 123//123 82//82
f 120//120 145//145 140//140
f 124//124 74//74 75//75
f 83//83 111//111 85//85
f 57//57 125//125 82//82
f 38//38 66//66 26//26
f 100//100 118//118 126//126
f 98//98 121//121 123//123
f 7//7 105//105 64//64
f 8//8 2//2 91//91
f 132//132 73//73 119//119
f 122//122 100//100 126//126
f 145//145 120//120 133//133
f 127//127 105//105 7//7
f 126//126 118//118 121//121
f 122//122 80//80 132//132
f 68//68 82//82 29//29
f 10//10 150//150 131//131
f 108//108 8//8 91//91
f 47//47 68//68 29//29
f 145//145 133//133 131//131
f 5//5 128//128 2//2
f 78//78 130//130 133//133
f 137//137 122//122 126//126
f 61//61 6//6 94//94
f 127//127 77//77 140//140
f 6//6 13//13 94//94
f 152//152 151//151 70//70
f 85//85 96//96 88//88
f 129//129 16//16 117//117
f 94//94 129//129 102//102
f 142//142 78//78 73//73
f 121//121 98//98 126//126
f 125//125 101//101 29//29
f 126//126 98//98 99//99
f 80//80 122//122 137//137
f 85//85 143//143 141//141
f 99//99 68//68 137//137
f 54//54 1//1 135//135
f 47//47 137//137 68//68
f 137//137 126//126 99//99
f 133//133 130//130 14//14
f 3//3 4//4 9//9
f 10//10 131//131 14//14
f 21//21 139//139 70//70
f 138//138 114//114 117//117
f 138//138 117//117 16//16
f 120//120 140//140 134//134
f 121//121 96//96 141//141
f 107//107 139//139 21//21
f 143//143 147//147 144//144
f 14//14 130//130 142//142
f 14//14 142//142 47//47
f 96//96 85//85 141//141
f 80//80 47//47 142//142
f 35//35 113//113 145//145
f 17//17 70//70 139//139
f 148//148 17//17 139//139
f 137//137 47//47 80//80
f 1//1 54//54 151//151
f 143//143 144//144 141//141
f 146//146 17//17 148//148
f 131//131 35//35 145//145
f 144//144 147//147 110//110
f 92//92 144//144 110//110
f 19//19 12//12 149//149
f 79//79 146//146 76//76
f 148//148 37//37 146//146
f 90//90 79//79 76//76
f 24//24 90//90 76//76
f 64//64 106//106 83//83
f 10//10 101//101 150//150
f 92//92 110//110 57//57
f 83//83 7//7 64//64
f 114//114 138//138 103//103
f 146//146 79//79 17//17

