# https://github.com/mikedh/trimesh
v 0.03100100 -0.01799000 -0.10936400
v -0.04931200 0.05891200 -0.10936800
v 0.00074900 0.07513200 -0.10938100
v 0.03012200 0.07064800 -0.10937700
v 0.05128500 0.02867900 -0.10592100
v -0.03582400 0.06611400 -0.10938200
v 0.03138500 0.01368400 0.07965200
v -0.06371500 -0.00602700 0.07544200
v -0.04444500 0.00307800 0.07638000
v -0.02407400 -0.01921800 0.08135200
v 0.04738100 -0.01614000 0.07285300
v -0.00809000 -0.05451700 0.05046000
v -0.00535400 -0.06517000 0.03986900
v -0.06301200 -0.00967900 0.02374000
v -0.05004500 -0.00454500 0.08312300
v 0.03981700 -0.02009700 0.01584200
v -0.05891900 -0.01228400 -0.01001500
v 0.03358300 -0.02024800 -0.05076900
v 0.01023000 -0.02728000 0.08094700
v 0.01006200 -0.01464600 0.06896700
v -0.05268800 -0.02665800 0.07308700
v 0.04715600 -0.00979100 0.00476200
v -0.06485500 -0.00109800 -0.00472200
v -0.06919400 0.01029900 -0.00051600
v -0.05282300 -0.01212300 -0.06940500
v 0.01138000 -0.03348000 -0.05290400
v -0.00516400 -0.06164000 -0.05487700
v 0.00230200 -0.07441200 -0.00459100
v 0.04171900 -0.01121100 -0.06421400
v 0.03136700 -0.03168800 0.07132400
v 0.05388300 0.01000800 0.07825000
v 0.00337800 -0.06337700 -0.04266600
v 0.05570800 0.00947300 0.00987900
v -0.07146300 0.01036900 0.07134700
v 0.02030800 -0.02679700 -0.08534500
v 0.05013400 0.00037000 -0.03425000
v -0.00867200 0.07504600 0.08392600
v -0.01762300 -0.03461000 -0.06217900
v 0.00030500 0.05004100 0.08347800
v -0.02868600 -0.03117400 0.08010400
v -0.02651700 0.02317700 0.07574500
v -0.03370900 -0.03002300 -0.04533500
v 0.05826800 0.02461500 0.02542500
v -0.01768500 0.06507600 0.08417800
v -0.01099400 -0.04018000 -0.05245900
v 0.00264700 0.08717300 0.07564100
v -0.01219000 -0.04390800 0.07011900
v 0.00057000 0.06358100 0.07237400
v -0.00259800 -0.03268400 -0.10427500
v -0.02064200 -0.02854900 -0.10937800
v 0.00932300 0.02036700 0.06016000
v 0.00017400 -0.03089100 -0.10938300
v 0.00513300 -0.03219000 -0.09552700
v 0.01465200 0.05778100 0.07111300
v 0.04399200 0.05352600 0.08055900
v 0.02604800 0.07917400 0.07516900
v 0.00825900 0.08554100 0.02800500
v -0.02218400 -0.03762000 -0.02017300
v -0.03116200 0.08060000 -0.03500800
v -0.03338800 0.07869000 -0.06981900
v -0.00988000 -0.07477400 -0.02073000
v 0.04239500 0.06527100 0.02798800
v 0.04927900 0.00746800 -0.10044500
v -0.01381400 0.08322900 -0.04655100
v 0.02770300 0.06130600 0.08353100
v 0.05387100 0.02567900 -0.06559000
v -0.07236500 0.02227700 0.07191100
v -0.00305900 0.08345500 -0.04182700
v -0.04740800 0.02122000 0.07187600
v 0.04733500 0.02811500 0.08256300
v 0.05228700 0.04794700 0.00657100
v -0.06387600 0.00227100 -0.05622200
v -0.03458600 -0.03828000 0.06790000
v -0.07063900 0.02212100 0.00798300
v 0.01113700 0.08139300 -0.04900400
v 0.03469500 0.07323000 0.05432300
v 0.02173300 0.07686300 -0.08094700
v 0.01330800 -0.07106400 0.04711700
v -0.00955000 -0.07225000 0.02638100
v -0.07066500 0.03895500 0.07032500
v -0.04567600 -0.01508000 -0.10937600
v -0.02167600 -0.03993100 0.01101200
v 0.03075600 0.07206900 -0.07596500
v -0.05262000 0.06814100 0.03020800
v 0.04833000 0.05920600 0.07266000
v 0.05337500 0.03895700 -0.03867600
v -0.04929500 0.06603100 -0.10122900
v -0.07041900 0.03317800 0.03562900
v 0.04886000 0.04410200 -0.10071800
v -0.04179600 0.06665800 0.08286600
v 0.04616500 0.05871200 -0.00193100
v -0.00883400 -0.02206100 0.08138800
v -0.06307700 0.02351600 0.08080000
v -0.05928100 0.04876500 -0.10330300
v -0.05775500 0.06296300 0.07738500
v -0.03317400 0.08102800 -0.00293700
v -0.06537000 0.02368200 -0.09065700
v -0.00450400 -0.03715800 -0.04270000
v -0.00624800 -0.08155400 0.03250900
v 0.00975300 -0.07113500 0.01947200
v -0.04452800 0.04030800 0.08437700
v -0.04700000 -0.02266700 -0.02335100
v 0.00602200 -0.08123200 0.00916600
v -0.04753300 0.06782100 -0.07415700
v -0.00834700 -0.07650600 0.04168800
v 0.01011700 -0.08253000 -0.02678500
v 0.04690300 0.05256900 -0.07803200
v -0.03777500 0.04712900 0.06943100
v 0.05888100 0.03605300 0.07464300
v -0.00724700 -0.07665800 -0.03803400
v -0.06727800 0.04248000 0.02282500
v 0.00820000 -0.04237500 0.05208000
v 0.05978500 0.01595100 0.06908100
v 0.01396300 -0.07328200 -0.02247700
v -0.05239400 0.06262000 -0.04570200
v -0.06736100 0.02893800 -0.05569200
v 0.01295500 -0.05999200 -0.04755400
v -0.06141600 0.05617400 0.03267100
v -0.06284100 0.03988600 -0.10360900
v 0.01162200 -0.03743200 -0.06141700
v -0.06334500 0.04479200 -0.05066800
v -0.06377700 0.05454500 0.05241800
v 0.00901800 -0.04711500 0.04285500
v -0.03514300 0.08071000 0.02783700
v -0.00673200 -0.08252600 -0.01526900
v -0.03946900 0.07942300 0.07113500
v -0.04767900 -0.02627000 0.00371800
v 0.01551600 -0.08037000 0.01348200
v -0.03339800 -0.03462900 -0.00431000
v -0.01468000 0.08763000 0.06077200
v -0.03208400 0.07784700 -0.10228900
v -0.04295000 0.07430800 -0.03076500
v -0.01332900 0.08538500 0.01944000
v -0.03242100 -0.00807300 0.06758900
v 0.01300400 -0.03842600 0.02224400
v -0.01546500 0.08101000 -0.10250100
v 0.01455600 0.08207000 -0.02509400
v -0.01426800 0.08203300 -0.08746300
v 0.02276300 0.07900000 -0.01476200
v 0.03989300 -0.01386300 0.07940300
v 0.00822300 -0.04102600 0.07406400
v 0.03162500 0.07258900 -0.03457800
v 0.05422900 -0.00433100 0.07126500
v -0.00013100 0.07979000 -0.09863100
v 0.02772500 -0.02813300 -0.00915500
v 0.00777800 0.08237200 -0.10239400
v 0.01095900 -0.07192700 -0.04824800
v -0.06304500 0.00860800 -0.10928400
v 0.01132100 -0.06627500 0.03414800
v 0.03839900 0.06325400 -0.10556400
v -0.03575900 -0.02497100 -0.10083100
v -0.01164000 -0.03890700 -0.02033100
vn 0.48368928 -0.53182290 -0.69513242
vn -0.50331576 0.39269645 -0.76971601
vn -0.00959643 0.39388208 -0.91911088
vn 0.42948097 0.56770984 -0.70231876
vn 0.76774118 0.03039103 -0.64003895
vn -0.18479915 0.34151404 -0.92152994
vn -0.36412158 0.00407754 0.93134250
vn -0.77102710 -0.36698662 0.52042101
vn 0.60540424 0.37748320 0.70070831
vn 0.15844173 0.36077888 0.91909456
vn 0.73334089 -0.55906852 0.38685080
vn -0.82364879 0.35817420 0.43967478
vn -0.69998677 0.51906028 -0.49050480
vn -0.86773762 -0.49099508 -0.07717027
vn -0.05504385 -0.02501681 0.99817049
vn 0.71371373 -0.69793947 -0.05910341
vn -0.80641212 -0.59134828 0.00258907
vn 0.64017483 -0.76545242 -0.06525933
vn 0.09090343 -0.21923645 0.97142779
vn 0.23200205 0.54004060 0.80903103
vn -0.62924423 -0.63866669 0.44289566
vn 0.83763913 -0.54354745 -0.05400785
vn -0.89083251 -0.43225781 0.13989507
vn -0.96879232 -0.24488909 -0.03835065
vn -0.76033352 -0.64438356 -0.08162575
vn 0.56330517 -0.82409190 0.05966429
vn -0.68092140 -0.42815023 -0.59416616
vn -0.08091932 0.99544673 -0.05037737
vn 0.79625237 -0.60122301 -0.06717921
vn 0.51151389 -0.76619900 0.38896354
vn 0.63831246 -0.15611877 0.75377990
vn -0.03741530 0.69504420 0.71799280
vn 0.97313596 -0.22458498 -0.05067533
vn -0.91136486 -0.20656224 0.35601423
vn 0.46925564 -0.87878519 -0.08680862
vn 0.90937497 -0.41241953 -0.05428895
vn 0.02433116 0.32285732 0.94613484
vn -0.21367206 -0.97324381 -0.08450293
vn 0.63344283 0.09785091 0.76757761
vn -0.15452811 -0.48541462 0.86051944
vn -0.55013313 -0.08047722 0.83119008
vn -0.46666101 -0.88183765 -0.06774855
vn 0.99766279 0.04561826 -0.05087167
vn -0.04617444 -0.04118987 0.99808382
vn -0.86299576 0.49817623 0.08401640
vn 0.11012084 0.86400908 0.49128577
vn -0.08507123 -0.93094711 0.35510614
vn 0.43938850 -0.39177137 0.80836436
vn 0.02051660 -0.97825931 -0.20636812
vn -0.18176371 -0.65487279 -0.73355544
vn 0.24482282 0.06320790 0.96750532
vn 0.12842300 -0.64615477 -0.75232409
vn 0.28556980 -0.95024663 -0.12442360
vn -0.37477170 -0.44778035 0.81181213
vn 0.46255073 0.29943231 0.83449812
vn 0.42611587 0.76323612 0.48569114
vn 0.19841382 0.97973400 -0.02744519
vn -0.29579180 -0.95095453 -0.09051348
vn -0.32426051 0.94544919 -0.03132023
vn -0.40331545 0.91431814 -0.03686445
vn -0.89429249 0.44561918 0.04079803
vn 0.74256515 0.66927703 -0.02579263
vn 0.88305559 -0.31567465 -0.34722089
vn -0.09361323 0.99506240 -0.03297560
vn -0.04089210 0.08733964 0.99533895
vn 0.99780685 0.02960585 -0.05920289
vn -0.92181087 0.01637867 0.38729375
vn 0.05830398 0.99741469 -0.04200685
vn 0.80598732 -0.05677694 0.58920354
vn 0.25296354 -0.00877118 0.96743605
vn 0.93296656 0.35867581 -0.03041477
vn -0.92403081 -0.37539794 -0.07241167
vn -0.37594929 -0.89296247 0.24754830
vn -0.99839947 0.03967765 -0.04030110
vn 0.17255717 0.98366254 -0.05130326
vn 0.63033133 0.77632198 0.00256798
vn 0.43318287 0.90068679 -0.03340526
vn 0.68277144 -0.41052071 0.60439714
vn -0.88040900 0.45239497 -0.14219274
vn -0.91240421 0.24082124 0.33094362
vn -0.49568426 -0.49391352 -0.71438544
vn -0.19281057 -0.97990589 -0.05107378
vn 0.60514421 0.79544049 -0.03278584
vn -0.70783037 0.70565936 -0.03195349
vn 0.76777957 0.55248974 0.32445280
vn 0.97203162 0.22980684 -0.04840806
vn -0.84985647 0.47338409 -0.23162789
vn -0.97988013 0.19625718 -0.03630499
vn 0.89844252 0.31912021 -0.30160128
vn -0.24538159 0.38529661 0.88956978
vn 0.83911918 0.54305010 -0.03123446
vn -0.05953707 -0.09493806 0.99370121
vn -0.48534824 0.01911540 0.87411194
vn -0.82424755 0.46642674 -0.32103281
vn -0.67229377 0.49493856 0.55050605
vn -0.37955604 0.92500957 -0.01716145
vn -0.99694743 -0.00827489 -0.07763602
vn 0.06526632 -0.99501175 -0.07544486
vn -0.40163611 -0.89612132 0.18882538
vn 0.36261628 0.90482665 -0.22315505
vn 0.37321287 -0.21304664 0.90295254
vn -0.62617507 -0.77746299 -0.05878846
vn 0.08207205 -0.99305360 0.08431321
vn -0.77037793 0.63608144 -0.04379781
vn -0.67983220 -0.50013096 0.53637413
vn 0.48270654 -0.85017114 -0.21024611
vn 0.90847889 0.41559077 -0.04416349
vn 0.29299943 -0.53611269 0.79166566
vn 0.87543119 0.18963224 0.44458953
vn -0.80631878 -0.40141276 -0.43441664
vn -0.94696630 0.31806099 -0.04573874
vn 0.32671513 -0.94256591 0.06947460
vn 0.97344689 -0.11933105 0.19534907
vn 0.85192915 0.52128436 0.04979292
vn -0.80719481 0.58914907 -0.03660492
vn -0.99357250 0.10367496 -0.04544438
vn 0.98197609 -0.02524782 0.18731123
vn -0.85629104 0.51367829 -0.05385415
vn -0.86914101 0.21740702 -0.44421627
vn 0.46657496 0.37444806 -0.80130921
vn -0.91752487 0.39578772 -0.03873237
vn -0.87433899 0.48485127 -0.02122671
vn 0.38504962 0.69592033 -0.60616143
vn -0.41982869 0.90710460 -0.03008521
vn -0.54541166 -0.83720811 -0.04010870
vn -0.41844558 0.84400452 0.33549912
vn -0.66796989 -0.73381311 -0.12383273
vn 0.83625657 -0.52389061 0.16190609
vn -0.47195987 -0.87551678 -0.10355800
vn -0.14487555 0.98713825 0.06759551
vn -0.33299376 0.82724964 -0.45251872
vn -0.62283520 0.78150508 -0.03641607
vn -0.10117401 0.99423455 -0.03551727
vn 0.20206871 0.46075675 0.86421725
vn 0.34095939 -0.93706093 -0.07525629
vn -0.10118590 0.88785842 -0.44885280
vn 0.26043828 0.96463131 -0.04072271
vn -0.04581428 0.99772133 -0.04952970
vn 0.46073324 0.88723854 -0.02307946
vn 0.31002964 -0.28364383 0.90742923
vn 0.19228551 -0.81222950 0.55073543
vn 0.61869315 0.78517637 -0.02677410
vn 0.88027464 -0.36873258 0.29858474
vn -0.07350701 0.98026526 0.18351224
vn 0.55368513 -0.83034270 -0.06295850
vn 0.09685588 0.94071184 -0.32508487
vn 0.70659182 -0.40771959 -0.57835348
vn -0.70565860 -0.21548785 -0.67498957
vn 0.65239352 0.65159103 -0.38705533
vn 0.72908729 0.41358901 -0.54532180
vn -0.48482798 -0.85218633 -0.19677470
vn -0.01405120 -0.99775995 -0.06540370
f 6//6 81//81 2//2
f 50//50 81//81 6//6
f 148//148 2//2 81//81
f 3//3 50//50 6//6
f 52//52 50//50 3//3
f 4//4 1//1 3//3
f 4//4 5//5 1//1
f 4//4 89//89 5//5
f 3//3 1//1 52//52
f 88//88 67//67 80//80
f 111//111 88//88 122//122
f 122//122 118//118 111//111
f 115//115 84//84 132//132
f 88//88 74//74 67//67
f 67//67 74//74 34//34
f 67//67 34//34 93//93
f 74//74 88//88 111//111
f 118//118 121//121 111//111
f 24//24 14//14 34//34
f 8//8 34//34 14//14
f 129//129 102//102 58//58
f 40//40 21//21 73//73
f 40//40 73//73 47//47
f 40//40 15//15 21//21
f 93//93 95//95 80//80
f 80//80 67//67 93//93
f 95//95 122//122 80//80
f 121//121 119//119 116//116
f 97//97 116//116 119//119
f 6//6 87//87 131//131
f 97//97 119//119 148//148
f 23//23 127//127 24//24
f 24//24 127//127 14//14
f 129//129 73//73 127//127
f 19//19 92//92 141//141
f 126//126 84//84 95//95
f 132//132 84//84 96//96
f 96//96 59//59 132//132
f 60//60 132//132 59//59
f 132//132 104//104 115//115
f 116//116 111//111 121//121
f 116//116 74//74 111//111
f 2//2 87//87 6//6
f 17//17 25//25 102//102
f 151//151 42//42 102//102
f 40//40 47//47 141//141
f 19//19 141//141 140//140
f 20//20 39//39 19//19
f 39//39 92//92 19//19
f 10//10 40//40 92//92
f 131//131 138//138 136//136
f 94//94 115//115 2//2
f 115//115 104//104 2//2
f 87//87 104//104 60//60
f 60//60 131//131 87//87
f 119//119 94//94 2//2
f 148//148 119//119 2//2
f 97//97 148//148 72//72
f 72//72 24//24 97//97
f 23//23 17//17 127//127
f 47//47 73//73 82//82
f 113//113 109//109 31//31
f 70//70 31//31 109//109
f 109//109 55//55 70//70
f 20//20 19//19 7//7
f 10//10 9//9 15//15
f 15//15 9//9 69//69
f 138//138 60//60 64//64
f 131//131 136//136 6//6
f 98//98 38//38 49//49
f 38//38 151//151 50//50
f 151//151 38//38 42//42
f 58//58 82//82 129//129
f 37//37 39//39 48//48
f 9//9 10//10 134//134
f 101//101 69//69 108//108
f 44//44 90//90 101//101
f 15//15 101//101 93//93
f 59//59 96//96 133//133
f 82//82 58//58 152//152
f 47//47 82//82 112//112
f 11//11 31//31 140//140
f 31//31 143//143 113//113
f 71//71 85//85 109//109
f 20//20 7//7 51//51
f 20//20 51//51 39//39
f 46//46 37//37 65//65
f 46//46 65//65 56//56
f 37//37 90//90 44//44
f 133//133 124//124 130//130
f 64//64 60//60 59//59
f 68//68 138//138 64//64
f 136//136 146//146 3//3
f 50//50 52//52 49//49
f 49//49 52//52 53//53
f 47//47 112//112 141//141
f 11//11 140//140 30//30
f 71//71 109//109 43//43
f 65//65 54//54 51//51
f 48//48 51//51 54//54
f 46//46 56//56 57//57
f 26//26 35//35 145//145
f 142//142 62//62 150//150
f 37//37 48//48 54//54
f 130//130 126//126 46//46
f 137//137 68//68 57//57
f 64//64 133//133 68//68
f 68//68 75//75 138//138
f 3//3 146//146 4//4
f 35//35 1//1 18//18
f 16//16 18//18 29//29
f 11//11 22//22 143//143
f 11//11 16//16 22//22
f 18//18 16//16 145//145
f 26//26 135//135 98//98
f 135//135 112//112 152//152
f 109//109 113//113 43//43
f 142//142 150//150 83//83
f 76//76 62//62 142//142
f 150//150 89//89 4//4
f 63//63 29//29 1//1
f 16//16 29//29 22//22
f 143//143 22//22 36//36
f 143//143 33//33 113//113
f 11//11 30//30 16//16
f 112//112 78//78 123//123
f 123//123 78//78 149//149
f 141//141 112//112 30//30
f 123//123 13//13 12//12
f 149//149 78//78 128//128
f 100//100 149//149 128//128
f 105//105 13//13 79//79
f 12//12 105//105 78//78
f 105//105 99//99 78//78
f 114//114 100//100 128//128
f 79//79 100//100 28//28
f 100//100 114//114 28//28
f 32//32 114//114 147//147
f 117//117 32//32 147//147
f 61//61 28//28 114//114
f 61//61 114//114 32//32
f 61//61 125//125 99//99
f 99//99 79//79 61//61
f 147//147 110//110 27//27
f 61//61 32//32 110//110
f 120//120 117//117 27//27
f 32//32 45//45 27//27
f 27//27 110//110 32//32
f 45//45 120//120 27//27
f 117//117 120//120 26//26
f 26//26 45//45 117//117
f 45//45 26//26 120//120
f 117//117 45//45 32//32
f 117//117 147//147 27//27
f 106//106 110//110 147//147
f 114//114 106//106 147//147
f 103//103 125//125 106//106
f 106//106 128//128 103//103
f 110//110 125//125 61//61
f 110//110 106//106 125//125
f 99//99 125//125 103//103
f 103//103 128//128 78//78
f 103//103 78//78 99//99
f 128//128 106//106 114//114
f 99//99 105//105 79//79
f 28//28 61//61 79//79
f 12//12 112//112 123//123
f 13//13 105//105 12//12
f 12//12 78//78 112//112
f 79//79 13//13 100//100
f 123//123 149//149 13//13
f 100//100 13//13 149//149
f 30//30 135//135 145//145
f 16//16 30//30 145//145
f 150//150 4//4 83//83
f 83//83 139//139 142//142
f 83//83 77//77 139//139
f 4//4 77//77 83//83
f 77//77 146//146 75//75
f 4//4 146//146 77//77
f 142//142 139//139 76//76
f 33//33 43//43 113//113
f 107//107 71//71 86//86
f 107//107 89//89 150//150
f 63//63 1//1 5//5
f 66//66 63//63 5//5
f 43//43 66//66 86//86
f 33//33 63//63 66//66
f 63//63 33//33 36//36
f 33//33 66//66 43//43
f 89//89 107//107 66//66
f 107//107 86//86 66//66
f 66//66 5//5 89//89
f 71//71 43//43 86//86
f 63//63 36//36 29//29
f 22//22 29//29 36//36
f 18//18 1//1 29//29
f 146//146 144//144 75//75
f 144//144 138//138 75//75
f 57//57 130//130 46//46
f 57//57 133//133 130//130
f 68//68 137//137 75//75
f 75//75 137//137 77//77
f 77//77 137//137 139//139
f 56//56 76//76 139//139
f 57//57 56//56 139//139
f 76//76 85//85 62//62
f 65//65 7//7 70//70
f 56//56 65//65 55//55
f 85//85 56//56 55//55
f 55//55 65//65 70//70
f 76//76 56//56 85//85
f 150//150 91//91 107//107
f 91//91 71//71 107//107
f 112//112 135//135 30//30
f 143//143 36//36 33//33
f 53//53 52//52 1//1
f 1//1 35//35 53//53
f 144//144 146//146 136//136
f 68//68 133//133 57//57
f 137//137 57//57 139//139
f 65//65 37//37 54//54
f 62//62 91//91 150//150
f 135//135 152//152 98//98
f 145//145 135//135 26//26
f 145//145 35//35 18//18
f 26//26 53//53 35//35
f 144//144 136//136 138//138
f 46//46 126//126 37//37
f 51//51 7//7 65//65
f 109//109 85//85 55//55
f 11//11 143//143 31//31
f 112//112 82//82 152//152
f 38//38 98//98 152//152
f 49//49 53//53 98//98
f 64//64 59//59 133//133
f 126//126 90//90 37//37
f 85//85 91//91 62//62
f 91//91 85//85 71//71
f 133//133 96//96 124//124
f 92//92 41//41 134//134
f 108//108 134//134 41//41
f 44//44 108//108 41//41
f 69//69 9//9 134//134
f 101//101 108//108 44//44
f 134//134 108//108 69//69
f 44//44 41//41 92//92
f 140//140 70//70 7//7
f 19//19 140//140 7//7
f 141//141 30//30 140//140
f 82//82 73//73 129//129
f 152//152 58//58 38//38
f 53//53 26//26 98//98
f 38//38 50//50 49//49
f 6//6 136//136 3//3
f 126//126 130//130 124//124
f 93//93 101//101 95//95
f 69//69 101//101 15//15
f 21//21 15//15 8//8
f 92//92 40//40 141//141
f 37//37 44//44 39//39
f 48//48 39//39 51//51
f 42//42 38//38 58//58
f 50//50 151//151 81//81
f 25//25 151//151 102//102
f 23//23 72//72 17//17
f 25//25 17//17 72//72
f 25//25 81//81 151//151
f 72//72 148//148 25//25
f 81//81 25//25 148//148
f 2//2 104//104 87//87
f 115//115 94//94 121//121
f 131//131 60//60 138//138
f 126//126 95//95 90//90
f 90//90 95//95 101//101
f 10//10 15//15 40//40
f 10//10 92//92 134//134
f 44//44 92//92 39//39
f 70//70 140//140 31//31
f 121//121 118//118 115//115
f 132//132 60//60 104//104
f 84//84 124//124 96//96
f 84//84 126//126 124//124
f 15//15 93//93 8//8
f 73//73 21//21 127//127
f 58//58 102//102 42//42
f 21//21 14//14 127//127
f 72//72 23//23 24//24
f 119//119 121//121 94//94
f 74//74 116//116 24//24
f 122//122 95//95 84//84
f 129//129 17//17 102//102
f 129//129 127//127 17//17
f 8//8 14//14 21//21
f 97//97 24//24 116//116
f 118//118 122//122 84//84
f 24//24 34//34 74//74
f 84//84 115//115 118//118
f 88//88 80//80 122//122
f 34//34 8//8 93//93

