# https://github.com/mikedh/trimesh
v 0.00475100 0.08892900 -0.04803300
v -0.00061600 0.09148100 -0.04611800
v 0.01825900 0.09161400 -0.02392400
v -0.01500500 0.09167600 -0.04374400
v -0.01579100 0.09128700 -0.02494200
v -0.01387400 0.09222700 -0.03544600
v -0.01656100 0.08501300 -0.03309700
v -0.01360900 0.08985500 -0.04763100
v 0.02062100 0.09014700 -0.04726000
v 0.00495400 0.07408900 -0.04803800
v -0.00939700 0.09226000 -0.03438000
v -0.01446700 0.06866700 -0.04739900
v -0.01545200 0.07494000 -0.04259600
v -0.01611200 0.04136800 -0.04678400
v -0.01240000 0.05213500 -0.04752600
v 0.00254700 0.03332200 -0.04743800
v -0.01955200 0.06333900 -0.00571300
v -0.02036200 0.03274400 -0.00772000
v -0.01556600 0.05717600 -0.04572000
v -0.01584100 0.01630800 -0.04688100
v -0.00471500 0.00104200 -0.04678400
v -0.01737100 0.00712800 -0.04636500
v -0.01801900 0.00904000 -0.04259100
v -0.02005700 0.02455600 -0.01763100
v -0.01901800 -0.00228300 -0.03592400
v 0.02341700 0.09039400 -0.04484300
v 0.02353600 0.08726400 -0.04562300
v 0.01560800 0.05402700 -0.04725400
v 0.02159900 0.06321900 -0.04650100
v 0.02109900 0.03750700 -0.04581800
v 0.02362500 0.07806100 -0.04231700
v 0.01705000 0.02412400 -0.04652700
v 0.02073800 0.02006000 -0.04411900
v 0.02395000 0.03874000 -0.02613000
v 0.01965000 0.00437100 -0.04523000
v 0.00062600 -0.02217700 -0.04626800
v 0.01978700 -0.00664700 -0.04329900
v 0.01774500 -0.00731700 -0.04582200
v 0.02212000 -0.00063800 -0.02263500
v -0.01442300 0.09226200 -0.00986100
v -0.01736600 0.08584400 -0.01365000
v -0.01813300 0.07826400 -0.02081700
v -0.01281300 0.09177600 0.01542900
v 0.01321100 0.09221400 -0.01063200
v 0.01410200 0.09217500 0.01359600
v 0.02268700 0.09119300 -0.00678700
v 0.02441400 0.08236300 0.01321400
v -0.01767000 0.08987700 0.01922300
v -0.00481400 0.09139300 0.04015200
v 0.02341500 0.09081800 0.01776100
v 0.00552100 0.08857300 0.04356100
v 0.02308400 0.09136100 0.04026900
v 0.02221800 0.08845600 0.04224100
v -0.01917100 0.07550000 0.01110400
v -0.01941600 0.04599200 0.02240300
v -0.01663900 0.09070400 0.03252500
v -0.01220400 0.09008200 0.04279000
v -0.01522300 0.07262600 0.04114300
v -0.01708400 0.05068000 0.03962300
v -0.00136300 0.06859800 0.04277900
v -0.01501900 0.05040700 0.04164800
v 0.02427000 0.07298400 0.02417600
v 0.02231200 0.06367800 0.03746400
v 0.02125400 0.06048500 0.04217600
v 0.01773100 0.05573200 0.04249500
v -0.01960600 0.01173800 0.03206500
v -0.00567700 0.04655100 0.04197700
v 0.01982300 0.03781900 0.04250500
v 0.02362600 0.08997800 -0.03031100
v 0.02496000 0.07508500 -0.02196000
v 0.02519900 0.06704700 -0.01776800
v 0.02504100 0.05728100 0.00878800
v 0.02425900 0.03080400 -0.01029600
v 0.02340400 0.02095400 0.00738900
v 0.02082200 0.03444200 0.03812600
v 0.02252900 0.02506700 0.02179700
v 0.01953100 0.02449700 0.04312600
v -0.01880800 -0.02355000 -0.04601300
v -0.02015700 -0.02212400 -0.02620100
v -0.02050900 0.00003200 -0.01410600
v -0.02066900 -0.01605100 -0.01394200
v -0.02106700 -0.01587900 0.00533200
v -0.02072600 -0.03335100 0.00880400
v -0.02007500 -0.04386300 -0.02317600
v -0.02261400 -0.07838200 0.01164600
v 0.01372200 0.00710500 -0.04647900
v -0.01926100 -0.03852300 -0.04621100
v 0.01860800 -0.03060700 -0.04380300
v 0.02015500 -0.02260800 -0.03182300
v -0.00141100 -0.03915600 -0.04606300
v -0.01972600 -0.05547600 -0.04595800
v -0.02023400 -0.06177400 -0.04457400
v -0.01635300 -0.06129300 -0.04634400
v 0.01588900 -0.04627300 -0.04533900
v 0.01771100 -0.05308600 -0.04370500
v 0.01826800 -0.05178700 -0.02433600
v 0.01702900 -0.06364100 -0.04501700
v 0.01812600 -0.04892300 -0.00821100
v 0.00418100 -0.07984600 -0.04577200
v -0.01708200 -0.08238000 -0.04408000
v -0.02179500 -0.08097500 -0.03206000
v -0.02238800 -0.08037200 -0.00375800
v -0.01970000 -0.08221600 -0.02646100
v -0.01250800 -0.08297800 -0.01758000
v 0.01518400 -0.07699300 -0.04528300
v 0.00647500 -0.08267300 -0.04429300
v 0.01662900 -0.08324600 -0.03395300
v 0.01722900 -0.06973000 -0.03273700
v 0.01692000 -0.08354700 -0.02180300
v -0.02066500 -0.05809500 0.00164800
v -0.01768600 -0.08239400 0.00808000
v -0.02173100 -0.08122300 0.01227500
v -0.00529300 -0.08269100 0.01967100
v 0.01654500 -0.08294500 -0.00058700
v 0.01675200 -0.07001300 -0.00746800
v 0.01664600 -0.08217300 0.00884100
v 0.00293000 -0.08338900 0.01028200
v -0.02144600 -0.08146800 -0.04507700
v -0.02052600 0.02258600 0.01039700
v -0.01845800 0.02097400 0.03999600
v -0.01824800 0.01517200 0.04125800
v -0.01581300 0.01885900 0.04247100
v 0.00387300 0.01781100 0.04328800
v -0.01674200 0.00087600 0.04289500
v -0.01936400 -0.00454200 0.04105800
v -0.02091300 -0.02826600 0.03110100
v -0.02035700 -0.02304100 0.03915800
v -0.01924300 -0.02905500 0.04277200
v -0.02099900 -0.03970700 0.04226100
v -0.01678900 -0.04453000 0.04386000
v -0.00627700 -0.03033000 0.04364700
v -0.01852300 -0.01746900 0.04297600
v -0.02067600 -0.05656200 0.04353600
v -0.02302000 -0.08102100 0.03469500
v -0.02280800 -0.07874200 0.04342600
v 0.01740400 -0.04177000 0.03390900
v 0.02146900 -0.01125200 -0.00131700
v 0.01837600 -0.00552500 0.04333500
v 0.01719400 -0.03216400 0.04370400
v 0.02039000 -0.02652400 -0.01074500
v 0.01547200 -0.06717300 0.02337600
v 0.01541200 -0.06801500 0.04427900
v 0.00830700 -0.08291300 0.03107400
v -0.01700600 -0.06049900 0.04458200
v 0.01135000 -0.05888300 0.04409200
v 0.00139000 -0.07894100 0.04481900
v 0.01510100 -0.08126200 0.04266200
v 0.01618000 -0.08153400 0.02921800
v 0.01456000 -0.07727400 0.04469900
v 0.01663900 -0.04936100 0.04391600
v -0.01699900 -0.08150600 0.04421800
v -0.00026500 -0.08218300 0.04311700
vn 0.03625866 0.36135174 -0.93172433
vn 0.02549409 0.89141748 -0.45246538
vn 0.13980057 0.98970459 -0.03066956
vn -0.67332846 0.69248561 -0.25902213
vn -0.72029072 0.69200873 -0.04801254
vn -0.52093815 0.85358848 0.00318509
vn -0.98472785 0.14754390 -0.09242222
vn -0.48981996 0.41399283 -0.76725898
vn 0.20289876 0.65883283 -0.72441106
vn 0.02220663 -0.00822599 -0.99971956
vn -0.00613868 0.99985583 -0.01583118
vn -0.61909478 0.02449956 -0.78493402
vn -0.97959609 0.03230961 -0.19836225
vn -0.72282925 0.02758146 -0.69047603
vn -0.20805146 0.01566739 -0.97799239
vn 0.01653928 -0.01832701 -0.99969524
vn -0.99880114 0.03935131 -0.02911632
vn -0.99937054 0.02391928 -0.02619903
vn -0.84282000 0.00815344 -0.53813379
vn -0.52124985 -0.00520468 -0.85338825
vn -0.00671232 -0.02002747 -0.99977690
vn -0.67499107 0.02111267 -0.73752377
vn -0.98295641 0.04466270 -0.17833096
vn -0.99731053 0.02177207 -0.06998347
vn -0.99525963 0.02704366 -0.09341793
vn 0.68717923 0.65807392 -0.30777172
vn 0.85260317 0.04595581 -0.52053425
vn 0.10559459 -0.01634174 -0.99427498
vn 0.60994542 -0.02110795 -0.79216226
vn 0.73083466 -0.03854260 -0.68146546
vn 0.98859895 -0.04053710 -0.14501329
vn 0.26499828 -0.03999107 -0.96341924
vn 0.85179990 -0.02760710 -0.52313935
vn 0.99554030 -0.04017566 -0.08535470
vn 0.67100985 -0.02939839 -0.74086539
vn 0.01728154 -0.01539911 -0.99973207
vn 0.93012608 -0.05842797 -0.36256260
vn 0.44915815 -0.04054049 -0.89253203
vn 0.99692757 -0.06124363 -0.04883276
vn -0.51684240 0.85602381 -0.00985744
vn -0.96797560 0.25064699 -0.01411850
vn -0.99464153 0.08136788 -0.06377695
vn -0.17447610 0.98438031 0.02352630
vn 0.05433494 0.99850090 -0.00660784
vn 0.06003228 0.99814894 0.00973705
vn 0.65430916 0.75618075 0.00837846
vn 0.99658710 0.07920088 0.02326758
vn -0.81877062 0.57383920 0.01797872
vn -0.01353359 0.95735573 0.28859459
vn 0.73677664 0.67612183 0.00441048
vn 0.00938692 0.39751004 0.91754981
vn 0.63516102 0.66011374 0.40102411
vn 0.55232423 0.18046682 0.81386096
vn -0.99749169 0.06663911 0.02386561
vn -0.99608025 0.03127208 0.08274176
vn -0.72486483 0.66533790 0.17859578
vn -0.43996640 0.55170650 0.70855452
vn -0.65758682 0.02688784 0.75289881
vn -0.89670510 0.03404532 0.44131721
vn -0.05279852 -0.02691183 0.99824249
vn -0.39752813 0.01716717 0.91742938
vn 0.99734070 -0.00075401 0.07287631
vn 0.98671021 -0.04035566 0.15739881
vn 0.67378840 -0.02864572 0.73836889
vn 0.03672629 -0.00636022 0.99930512
vn -0.99540211 0.03490229 0.08919904
vn -0.02164620 0.00895444 0.99972559
vn 0.60572847 -0.01024047 0.79560553
vn 0.78950637 0.61373981 -0.00177052
vn 0.99889250 0.03809468 -0.02761460
vn 0.99964513 -0.00189800 -0.02657099
vn 0.99897204 -0.01899195 0.04116030
vn 0.99883311 -0.04707606 -0.01078269
vn 0.99725738 -0.05802665 0.04594156
vn 0.98310292 -0.04135816 0.17832039
vn 0.99349389 -0.05031040 0.10217026
vn 0.64812518 -0.00566864 0.76151272
vn -0.68988015 0.01944142 -0.72366250
vn -0.99858777 0.00762661 -0.05257664
vn -0.99898438 0.01120304 -0.04364291
vn -0.99955188 -0.00135846 -0.02990295
vn -0.99996978 -0.00300226 -0.00717145
vn -0.99988190 -0.01143491 -0.01026751
vn -0.99969330 0.00796613 -0.02344902
vn -0.99578974 -0.09101206 -0.01093605
vn 0.10382580 -0.02245730 -0.99434193
vn -0.68821781 0.00738945 -0.72546650
vn 0.88767373 -0.04378405 -0.45838663
vn 0.99628269 -0.05989376 -0.06191559
vn 0.02211268 -0.01014752 -0.99970398
vn -0.70175131 0.02304609 -0.71204914
vn -0.85112746 0.01343565 -0.52478713
vn -0.16261339 -0.02596293 -0.98634822
vn 0.33717262 -0.02008222 -0.94122863
vn 0.92647757 -0.01688418 -0.37597105
vn 0.99764836 -0.06850706 -0.00212976
vn 0.71053268 -0.04308245 -0.70234409
vn 0.99604847 -0.08337164 0.03060415
vn 0.03346566 -0.24525568 -0.96888064
vn -0.06784023 -0.92618447 -0.37091782
vn -0.85541948 -0.51669840 -0.03578091
vn -0.86880141 -0.49515135 -0.00304121
vn -0.31969829 -0.94751522 -0.00281372
vn -0.06049756 -0.99815620 -0.00492369
vn 0.59965837 -0.30583594 -0.73950944
vn 0.12239580 -0.81669010 -0.56394729
vn 0.67710654 -0.72264726 -0.13895203
vn 0.99892838 -0.04329823 -0.01635072
vn 0.69565898 -0.71836491 -0.00323029
vn -0.99891137 0.04499800 -0.01229880
vn -0.17734376 -0.98414891 0.00033179
vn -0.69191514 -0.72170724 -0.01980168
vn -0.05384503 -0.99815065 0.02821318
vn 0.71856513 -0.69514408 0.02094896
vn 0.99921770 -0.02998624 0.02578404
vn 0.81405896 -0.57731428 0.06337382
vn -0.01111960 -0.99980115 0.01655348
vn -0.63464289 -0.52284924 -0.56908441
vn -0.99949505 0.02027741 0.02446386
vn -0.89653048 0.05380893 0.43970183
vn -0.82229555 0.05095952 0.56677434
vn -0.33939302 0.06144118 0.93863590
vn -0.01411677 0.02289990 0.99963809
vn -0.33526300 0.02615721 0.94176139
vn -0.88863046 0.05413818 0.45541735
vn -0.99906156 0.01374505 0.04107408
vn -0.97833475 0.00288445 0.20700915
vn -0.65703266 0.04663473 0.75241829
vn -0.82739101 0.03211699 0.56070725
vn -0.14463732 0.04504438 0.98845893
vn -0.02328974 0.01768495 0.99957232
vn -0.55257440 0.01218593 0.83337448
vn -0.77158951 0.05304480 0.63390526
vn -0.76929501 -0.63785240 0.03646221
vn -0.73887359 -0.32202780 0.59191545
vn 0.99675561 -0.06701536 0.04457807
vn 0.99691013 -0.07477040 0.02407453
vn 0.66840633 -0.02889642 0.74323481
vn 0.68276147 -0.01860300 0.73040448
vn 0.99649550 -0.08337526 0.00673001
vn 0.99884622 -0.03409746 0.03381718
vn 0.71524873 -0.03456326 0.69801478
vn 0.07054131 -0.99645161 0.04591426
vn -0.11768454 0.02400758 0.99276079
vn 0.00587913 0.02358708 0.99970450
vn 0.02612702 -0.23739831 0.97106098
vn 0.65423310 -0.60373699 0.45550049
vn 0.86100805 -0.50710096 0.03890691
vn 0.62960469 -0.13669653 0.76479540
vn 0.70325567 -0.03305369 0.71016823
vn -0.17185259 -0.69921291 0.69395100
vn 0.01893750 -0.85401058 0.51991087
f 8//8 2//2 1//1
f 2//2 26//26 1//1
f 9//9 1//1 26//26
f 26//26 2//2 3//3
f 69//69 26//26 3//3
f 12//12 10//10 15//15
f 8//8 13//13 4//4
f 5//5 11//11 6//6
f 7//7 6//6 4//4
f 5//5 6//6 7//7
f 41//41 5//5 7//7
f 42//42 41//41 7//7
f 8//8 1//1 10//10
f 6//6 2//2 4//4
f 8//8 4//4 2//2
f 12//12 8//8 10//10
f 8//8 12//12 13//13
f 1//1 9//9 10//10
f 6//6 11//11 2//2
f 2//2 11//11 3//3
f 19//19 13//13 12//12
f 7//7 4//4 13//13
f 15//15 19//19 12//12
f 14//14 19//19 15//15
f 19//19 14//14 7//7
f 15//15 10//10 16//16
f 28//28 16//16 10//10
f 23//23 7//7 14//14
f 20//20 14//14 15//15
f 20//20 15//15 16//16
f 20//20 16//16 21//21
f 17//17 42//42 18//18
f 24//24 18//18 42//42
f 7//7 13//13 19//19
f 23//23 42//42 7//7
f 23//23 24//24 42//42
f 23//23 14//14 20//20
f 22//22 23//23 20//20
f 22//22 20//20 21//21
f 22//22 78//78 25//25
f 78//78 22//22 21//21
f 23//23 22//22 25//25
f 25//25 24//24 23//23
f 24//24 25//25 80//80
f 18//18 24//24 80//80
f 80//80 82//82 18//18
f 119//119 18//18 82//82
f 27//27 9//9 26//26
f 29//29 9//9 27//27
f 31//31 29//29 27//27
f 26//26 69//69 27//27
f 27//27 69//69 70//70
f 31//31 27//27 70//70
f 28//28 10//10 29//29
f 9//9 29//29 10//10
f 30//30 28//28 29//29
f 31//31 30//30 29//29
f 31//31 71//71 34//34
f 31//31 70//70 71//71
f 32//32 16//16 28//28
f 30//30 33//33 32//32
f 32//32 28//28 30//30
f 34//34 30//30 31//31
f 30//30 34//34 33//33
f 37//37 33//33 34//34
f 16//16 86//86 21//21
f 32//32 86//86 16//16
f 33//33 35//35 32//32
f 86//86 32//32 35//35
f 36//36 21//21 86//86
f 35//35 38//38 86//86
f 37//37 38//38 35//35
f 37//37 35//35 33//33
f 39//39 37//37 34//34
f 73//73 39//39 34//34
f 37//37 39//39 89//89
f 137//137 39//39 73//73
f 5//5 40//40 11//11
f 44//44 11//11 40//40
f 40//40 45//45 44//44
f 41//41 40//40 5//5
f 41//41 48//48 40//40
f 40//40 48//48 43//43
f 41//41 42//42 48//48
f 45//45 40//40 43//43
f 42//42 54//54 48//48
f 3//3 11//11 44//44
f 3//3 46//46 69//69
f 3//3 44//44 46//46
f 45//45 46//46 44//44
f 69//69 46//46 47//47
f 50//50 47//47 46//46
f 43//43 48//48 56//56
f 49//49 45//45 43//43
f 56//56 49//49 43//43
f 56//56 57//57 49//49
f 49//49 57//57 51//51
f 51//51 57//57 60//60
f 50//50 46//46 45//45
f 72//72 47//47 62//62
f 45//45 49//49 52//52
f 50//50 62//62 47//47
f 50//50 45//45 52//52
f 62//62 50//50 52//52
f 63//63 62//62 52//52
f 51//51 52//52 49//49
f 65//65 53//53 51//51
f 53//53 52//52 51//51
f 65//65 64//64 53//53
f 63//63 52//52 53//53
f 17//17 54//54 42//42
f 17//17 18//18 54//54
f 18//18 119//119 54//54
f 119//119 55//55 54//54
f 48//48 54//54 56//56
f 54//54 55//55 56//56
f 56//56 58//58 57//57
f 59//59 58//58 56//56
f 57//57 58//58 60//60
f 59//59 56//56 55//55
f 60//60 58//58 61//61
f 53//53 64//64 63//63
f 64//64 75//75 63//63
f 65//65 68//68 64//64
f 66//66 59//59 55//55
f 61//61 58//58 59//59
f 67//67 60//60 61//61
f 120//120 61//61 59//59
f 59//59 66//66 120//120
f 60//60 67//67 65//65
f 123//123 67//67 61//61
f 123//123 68//68 67//67
f 68//68 65//65 67//67
f 68//68 123//123 77//77
f 122//122 61//61 120//120
f 123//123 61//61 122//122
f 60//60 65//65 51//51
f 47//47 70//70 69//69
f 47//47 71//71 70//70
f 72//72 71//71 47//47
f 72//72 73//73 71//71
f 73//73 34//34 71//71
f 73//73 72//72 74//74
f 72//72 62//62 76//76
f 76//76 62//62 63//63
f 137//137 73//73 74//74
f 136//136 74//74 76//76
f 72//72 76//76 74//74
f 76//76 63//63 75//75
f 68//68 75//75 64//64
f 77//77 138//138 76//76
f 75//75 77//77 76//76
f 77//77 75//75 68//68
f 78//78 79//79 25//25
f 79//79 78//78 87//87
f 79//79 80//80 25//25
f 79//79 81//81 80//80
f 80//80 81//81 82//82
f 83//83 82//82 81//81
f 79//79 84//84 81//81
f 83//83 81//81 84//84
f 83//83 126//126 82//82
f 83//83 84//84 110//110
f 83//83 110//110 133//133
f 85//85 133//133 110//110
f 78//78 21//21 36//36
f 36//36 86//86 38//38
f 78//78 36//36 87//87
f 90//90 87//87 36//36
f 88//88 38//38 37//37
f 89//89 88//88 37//37
f 90//90 36//36 94//94
f 95//95 94//94 88//88
f 38//38 94//94 36//36
f 88//88 94//94 38//38
f 95//95 88//88 89//89
f 89//89 96//96 95//95
f 140//140 39//39 137//137
f 140//140 89//89 39//39
f 87//87 84//84 79//79
f 84//84 87//87 91//91
f 91//91 87//87 90//90
f 93//93 91//91 90//90
f 91//91 92//92 84//84
f 92//92 91//91 93//93
f 93//93 90//90 99//99
f 110//110 84//84 92//92
f 90//90 94//94 97//97
f 97//97 94//94 95//95
f 97//97 95//95 108//108
f 108//108 95//95 96//96
f 99//99 90//90 97//97
f 99//99 97//97 105//105
f 107//107 97//97 108//108
f 105//105 97//97 107//107
f 96//96 89//89 140//140
f 96//96 140//140 98//98
f 115//115 108//108 96//96
f 115//115 96//96 98//98
f 115//115 98//98 141//141
f 101//101 92//92 118//118
f 93//93 118//118 92//92
f 99//99 118//118 93//93
f 100//100 118//118 99//99
f 100//100 99//99 106//106
f 101//101 118//118 100//100
f 103//103 101//101 100//100
f 100//100 104//104 103//103
f 100//100 106//106 104//104
f 102//102 110//110 92//92
f 101//101 103//103 102//102
f 102//102 103//103 111//111
f 111//111 103//103 104//104
f 99//99 105//105 106//106
f 104//104 106//106 107//107
f 109//109 104//104 107//107
f 106//106 105//105 107//107
f 107//107 108//108 109//109
f 112//112 102//102 111//111
f 102//102 85//85 110//110
f 112//112 85//85 102//102
f 113//113 111//111 104//104
f 104//104 117//117 113//113
f 112//112 111//111 134//134
f 134//134 85//85 112//112
f 109//109 108//108 115//115
f 114//114 109//109 115//115
f 115//115 116//116 114//114
f 115//115 141//141 116//116
f 104//104 109//109 117//117
f 114//114 117//117 109//109
f 117//117 114//114 143//143
f 143//143 114//114 116//116
f 143//143 116//116 148//148
f 101//101 102//102 92//92
f 119//119 66//66 55//55
f 119//119 82//82 126//126
f 126//126 66//66 119//119
f 122//122 120//120 121//121
f 121//121 120//120 66//66
f 124//124 122//122 121//121
f 121//121 66//66 125//125
f 122//122 124//124 123//123
f 124//124 121//121 125//125
f 132//132 124//124 125//125
f 124//124 132//132 131//131
f 124//124 131//131 123//123
f 129//129 126//126 83//83
f 127//127 125//125 66//66
f 66//66 126//126 127//127
f 132//132 125//125 127//127
f 132//132 127//127 128//128
f 128//128 131//131 132//132
f 133//133 129//129 83//83
f 127//127 126//126 128//128
f 128//128 126//126 129//129
f 130//130 131//131 128//128
f 129//129 130//130 128//128
f 134//134 133//133 85//85
f 145//145 131//131 130//130
f 144//144 145//145 130//130
f 133//133 130//130 129//129
f 130//130 133//133 144//144
f 135//135 144//144 133//133
f 134//134 135//135 133//133
f 135//135 134//134 151//151
f 151//151 144//144 135//135
f 137//137 74//74 136//136
f 140//140 137//137 136//136
f 138//138 136//136 76//76
f 138//138 77//77 123//123
f 139//139 136//136 138//138
f 131//131 138//138 123//123
f 98//98 140//140 136//136
f 139//139 150//150 136//136
f 141//141 98//98 136//136
f 138//138 131//131 139//139
f 150//150 139//139 131//131
f 145//145 150//150 131//131
f 150//150 141//141 136//136
f 142//142 141//141 150//150
f 143//143 152//152 117//117
f 146//146 144//144 151//151
f 146//146 145//145 144//144
f 145//145 146//146 142//142
f 149//149 142//142 146//146
f 147//147 152//152 143//143
f 146//146 152//152 147//147
f 149//149 146//146 147//147
f 149//149 116//116 141//141
f 149//149 148//148 116//116
f 149//149 141//141 142//142
f 148//148 149//149 147//147
f 143//143 148//148 147//147
f 142//142 150//150 145//145
f 113//113 134//134 111//111
f 113//113 151//151 134//134
f 151//151 113//113 152//152
f 117//117 152//152 113//113
f 152//152 146//146 151//151

