# https://github.com/mikedh/trimesh
v -0.04421400 0.09323400 -0.00550100
v -0.03734100 0.09327600 0.00801200
v -0.01872000 0.09369300 0.00192000
v -0.00133900 0.08830100 -0.01527100
v -0.04567900 0.08862800 -0.01511800
v -0.04359200 0.07477600 -0.02667500
v -0.04925500 0.06018100 -0.00693200
v -0.04644500 0.05624600 0.02810300
v -0.01719200 0.06448900 0.03305700
v 0.00386400 0.09232600 0.00861800
v 0.00157800 0.03911600 0.02928200
v 0.00229100 0.05152700 0.03447500
v -0.04861200 0.07022300 0.02787800
v -0.04600200 0.08619700 0.02096900
v -0.02308900 0.07733600 0.02892600
v 0.00545700 0.08697100 0.02237400
v -0.02105700 0.08879100 0.01965800
v 0.00605400 0.09178600 -0.00567800
v 0.02269400 0.09029300 -0.00189700
v -0.00498200 0.07907200 -0.02530100
v -0.02991400 0.04814800 0.02878300
v -0.04806500 0.06161600 -0.02832700
v -0.04828600 0.04790400 -0.01820400
v -0.04099700 0.03460200 -0.00373200
v -0.03891700 0.04629300 -0.02440600
v -0.01446700 0.03827000 -0.02036200
v -0.02215300 0.03015400 -0.00212900
v -0.05120900 0.05151400 -0.00021600
v -0.01393600 0.03545500 0.02177900
v 0.00009700 0.03220500 0.02194700
v 0.03101100 0.03977500 0.02795600
v 0.04599200 0.07995200 0.01951200
v 0.05282900 0.07368500 0.02435200
v 0.02133300 0.08910000 0.01195600
v -0.01070700 0.03488300 -0.01079500
v -0.05179000 0.03816400 0.00032500
v -0.05226700 0.04546700 0.01916200
v -0.04580100 0.03738300 0.01056500
v 0.04298700 0.06157800 0.03095200
v 0.00886700 0.07212800 0.03274600
v 0.00739600 0.08149500 0.02771600
v 0.05926700 0.08207600 0.00142800
v 0.00626900 0.06444400 -0.03110800
v -0.01535200 0.06546200 -0.03027000
v -0.01982900 -0.00274400 -0.00100300
v -0.01064400 0.02943000 -0.00873900
v -0.01869500 0.02744700 -0.00070200
v 0.00808900 0.05928500 -0.03121400
v 0.00193500 0.03562900 -0.01598200
v -0.01939700 -0.00425800 -0.00624400
v -0.01093600 0.02908300 0.00911000
v 0.00156600 0.02681800 0.01008600
v -0.01579100 0.01483500 0.00602300
v -0.00004300 0.05381200 -0.03129300
v -0.02697500 -0.07411400 0.00159400
v -0.02418800 -0.07237700 0.00573100
v 0.01449500 0.02551800 0.00203700
v 0.01068300 0.00468700 0.00021600
v -0.01349000 -0.02381800 0.00968600
v 0.01214100 0.02680000 -0.00530900
v -0.00497600 -0.03888400 -0.01431300
v -0.02823700 -0.12867400 0.00585900
v -0.02491900 -0.12760700 0.00762700
v -0.03244700 -0.12725100 0.00113300
v -0.01646200 -0.03606500 0.00888300
v -0.00685700 -0.04382800 0.00979100
v 0.00191700 -0.04493900 0.00620200
v 0.00639000 -0.02194900 0.00377700
v 0.00366900 -0.00799200 0.00810000
v 0.00529600 -0.01747000 -0.00959300
v -0.01454100 -0.02021600 -0.01289000
v -0.02498500 -0.05542000 -0.01032900
v -0.02876600 -0.17362300 0.00533700
v -0.00986600 -0.20439800 -0.01232500
v -0.00214600 -0.16096400 -0.00734000
v -0.01219600 -0.19462200 -0.01798600
v -0.00205300 -0.15328600 -0.01260500
v -0.01658100 -0.12996600 0.00825200
v -0.01468100 -0.07157400 0.00949800
v 0.00593000 -0.04789600 0.00061800
v 0.00284600 -0.08055200 -0.00484400
v 0.00741700 -0.03918700 -0.00548700
v 0.00190400 -0.05265900 -0.01167900
v -0.02219000 -0.05584300 -0.01391000
v -0.03381600 -0.12548800 -0.01250800
v -0.01498900 -0.17158500 0.00453400
v -0.02086900 -0.17987500 0.00523800
v -0.01408600 -0.21031100 0.00159100
v -0.01098100 -0.21599000 -0.00513100
v -0.02407000 -0.20099500 -0.02233600
v -0.04173800 -0.24013800 -0.02241900
v -0.03444200 -0.20398300 -0.02117100
v -0.00097200 -0.13146500 -0.00029600
v -0.00578100 -0.17038500 -0.00121100
v -0.01040300 -0.13363800 0.00651000
v -0.00509400 -0.07532500 0.00826900
v 0.00172100 -0.07859000 -0.00893000
v -0.03893800 -0.17996100 -0.00801200
v -0.03468300 -0.19600300 0.00299300
v -0.04124800 -0.24375100 0.00141000
v -0.01303700 -0.24603000 -0.01547100
v -0.02792600 -0.24412700 -0.02486400
v -0.01863900 -0.24191200 -0.02247900
v -0.01769400 -0.21385900 -0.02106200
v -0.00632900 -0.15949300 -0.01632500
v 0.00049600 -0.11361200 -0.01113100
v 0.00078200 -0.13344100 -0.00579600
v -0.00467100 -0.11441200 0.00551300
v 0.00196700 -0.07848700 0.00161800
v -0.03017500 -0.24345200 0.00435800
v -0.04144700 -0.20169600 -0.01410200
v -0.00366100 -0.10177600 -0.01557200
v -0.00462100 -0.07414100 -0.01500700
v -0.01162600 -0.07240600 -0.01695700
v -0.02137800 -0.11996900 -0.01948800
v -0.01766300 -0.24187100 0.00146400
v -0.04712800 -0.24260000 -0.01142500
v -0.02190700 -0.15323900 -0.02037900
v -0.01508100 -0.17128900 -0.01951900
v -0.01417200 -0.12996200 -0.01962300
v -0.03711100 -0.18686200 -0.00033500
v -0.03526300 -0.24224500 0.00376500
v -0.04360400 -0.23618600 -0.00243400
v -0.03733300 -0.16445900 -0.01346900
v -0.03006500 -0.14050900 -0.01819500
v -0.03405800 -0.12305100 -0.00556900
v -0.00276200 0.03176000 0.01028000
v 0.04129700 0.08436800 -0.00761800
v 0.01333500 0.08083500 -0.02281100
v 0.05997400 0.07225800 0.01803100
v 0.05557500 0.08195100 -0.00427800
v 0.04135900 0.05916200 -0.02930800
v 0.05438500 0.07456500 -0.01254700
v 0.03889200 0.04920100 -0.02862000
v 0.04638800 0.07187100 -0.02521800
v 0.05583700 0.06864200 -0.02447900
v -0.00289000 0.04346600 -0.02715500
v 0.01864200 0.04533400 -0.02764900
v 0.02896600 0.03461100 -0.02056200
v -0.00013700 0.02777000 -0.01000100
v 0.03673200 0.02984300 -0.01396100
v 0.05503100 0.04233500 0.02633900
v 0.05674600 0.05532500 0.01634300
v 0.05592900 0.05259100 0.02855500
v 0.05699400 0.06466500 -0.00778100
v 0.05220400 0.04154900 -0.02505900
v 0.04543100 0.02987300 0.01770300
v 0.04960000 0.02620600 0.00861500
v 0.05346900 0.02982900 0.00465100
v 0.05127300 0.02706800 -0.00716800
v 0.05460700 0.05185600 -0.02751800
v 0.05300700 0.03389100 -0.01857500
vn -0.54803023 0.82625122 -0.13027583
vn -0.16034977 0.96151349 0.22311379
vn 0.02448027 0.99962024 -0.01265276
vn 0.06281494 0.84794782 -0.52634473
vn -0.63160832 0.63567677 -0.44383102
vn -0.38302158 0.40641776 -0.82952943
vn -0.99224743 0.10373765 -0.06843639
vn -0.44779713 -0.21587207 0.86768484
vn -0.10553373 0.07599524 0.99150762
vn 0.07704169 0.98145164 0.17554844
vn -0.05518188 -0.56701692 0.82185569
vn -0.01502944 -0.16933000 0.98544481
vn -0.71015544 0.20464432 0.67364676
vn -0.62665275 0.60220512 0.49462645
vn -0.07481480 0.45145677 0.88915102
vn 0.05993820 0.82378219 0.56372894
vn -0.01528061 0.81827041 0.57463035
vn 0.11544663 0.95936482 -0.25747082
vn 0.17453666 0.96918899 -0.17380925
vn 0.01185257 0.55877039 -0.82923770
vn -0.19108109 -0.43712197 0.87886996
vn -0.69276183 -0.04396922 -0.71982481
vn -0.80551520 -0.42020722 -0.41781712
vn -0.30214026 -0.92335027 -0.23692939
vn -0.28533557 -0.60384258 -0.74428338
vn -0.07768377 -0.83148938 -0.55008240
vn -0.26126059 -0.94254638 -0.20820476
vn -0.99080352 0.10277868 -0.08800532
vn -0.20647150 -0.78769671 0.58043382
vn -0.11038294 -0.84489499 0.52341958
vn 0.07908627 -0.50332155 0.86047241
vn 0.27198179 0.82644035 0.49297287
vn 0.50001835 0.41855491 0.75815133
vn 0.18191767 0.94285375 0.27916439
vn -0.15618003 -0.77516762 -0.61214619
vn -0.79276779 -0.59910050 -0.11224003
vn -0.79862270 -0.40213888 0.44775674
vn -0.35656178 -0.87581634 0.32528363
vn 0.21540662 0.12450187 0.96855525
vn 0.05327445 0.29587192 0.95374087
vn 0.06202879 0.60815072 0.79139443
vn 0.78064495 0.62020808 -0.07704154
vn 0.02693894 0.22124979 -0.97484503
vn -0.03683178 0.17928624 -0.98310725
vn -0.99088965 0.08527097 0.10424281
vn -0.44257675 -0.13376744 -0.88669730
vn -0.93463823 -0.35455400 -0.02725504
vn 0.05020163 -0.05221785 -0.99737310
vn -0.13976220 -0.73717221 -0.66109278
vn -0.87556861 0.11135231 -0.47008540
vn -0.34670813 -0.60652467 0.71548675
vn -0.03086485 -0.53986684 0.84118438
vn -0.77401687 0.05483305 0.63078619
vn -0.01545827 -0.17878297 -0.98376709
vn -0.91628976 0.09437122 0.38923920
vn -0.69851109 0.05984294 0.71309262
vn 0.45252371 -0.88012037 0.14356332
vn 0.98206054 -0.15347483 0.10955626
vn -0.25604943 0.02150869 0.96642437
vn 0.38045327 -0.76018356 -0.52666524
vn 0.19970720 0.04790869 -0.97868370
vn -0.61132024 0.02964802 0.79082777
vn -0.28665822 -0.00608741 0.95801357
vn -0.87105087 0.06593430 0.48674742
vn -0.36526954 0.01884127 0.93071111
vn 0.14430095 -0.02270037 0.98927343
vn 0.60530885 -0.06915908 0.79298059
vn 0.85622788 -0.08445633 0.50964786
vn 0.52533913 -0.04457734 0.84972446
vn 0.65886436 0.00720139 -0.75222729
vn -0.34128309 0.10369275 -0.93422356
vn -0.90364962 0.13984263 -0.40479797
vn -0.18955117 -0.02212579 0.98162152
vn 0.92830822 -0.12867420 -0.34883636
vn 0.98710145 -0.13733530 0.08227842
vn 0.67012598 -0.06996770 -0.73894228
vn 0.88429021 -0.07448828 -0.46095805
vn 0.08386238 -0.04466262 0.99547594
vn -0.05283850 -0.01304037 0.99851792
vn 0.92780457 -0.09271754 0.36136150
vn 0.99611332 -0.05334511 -0.07008962
vn 0.96960292 -0.05811237 -0.23768282
vn 0.64980543 -0.03907425 -0.75909559
vn -0.51584061 0.11793100 -0.84852858
vn -0.90180766 0.10857602 -0.41827527
vn 0.37782179 -0.07808431 0.92257982
vn 0.10960082 -0.04713428 0.99285750
vn 0.62420620 -0.08954819 0.77611065
vn 0.95787902 -0.11367126 0.26371696
vn 0.05878132 0.04046246 -0.99745052
vn -0.57676229 -0.35232941 -0.73702730
vn -0.41978764 0.09821165 -0.90229308
vn 0.83770251 -0.09367021 0.53803382
vn 0.77834222 -0.11573051 0.61708171
vn 0.37745458 -0.08381333 0.92222740
vn 0.40343042 -0.05583332 0.91330528
vn 0.86302738 -0.01865538 -0.50481256
vn -0.98357444 0.09533949 0.15327003
vn -0.53628416 0.03218931 0.84342347
vn -0.53292010 -0.62531870 0.57006376
vn 0.68931700 -0.69915386 -0.18980504
vn -0.02836216 -0.63500958 -0.77198343
vn 0.49428328 -0.26799427 -0.82696016
vn 0.52121959 0.00872207 -0.85337803
vn 0.55541295 -0.04464891 -0.83037517
vn 0.88344967 -0.02555903 -0.46782841
vn 0.99545097 -0.07920396 0.05295370
vn 0.54262039 -0.06783739 0.83723426
vn 0.87237597 -0.08317634 0.48170725
vn 0.03799342 -0.63330735 0.77296720
vn -0.90229422 0.13208995 -0.41038688
vn 0.53825818 0.02058337 -0.84252861
vn 0.47287544 -0.00203939 -0.88112693
vn 0.06109210 0.05461099 -0.99663704
vn -0.14336854 0.05833674 -0.98794852
vn 0.55599991 -0.51107200 0.65549181
vn -0.82962842 -0.55360453 -0.07237894
vn -0.03026720 0.02737411 -0.99916693
vn 0.28486287 0.00554470 -0.95855224
vn 0.19771890 0.01311926 -0.98017097
vn -0.86084221 0.07393126 0.50347279
vn -0.23873357 -0.19914886 0.95044517
vn -0.88497570 0.05165384 0.46276333
vn -0.91506071 0.09223828 -0.39262705
vn -0.48812507 0.06537088 -0.87032210
vn -0.98923796 0.10182401 0.10507197
vn -0.16255118 -0.77984391 0.60450029
vn 0.23788769 0.88581790 -0.39841699
vn 0.11253595 0.68346319 -0.72125843
vn 0.88825529 0.27430939 0.36845203
vn 0.55458233 0.69760609 -0.45363441
vn 0.11101303 0.09488210 -0.98927928
vn 0.77913783 0.53463036 -0.32728370
vn 0.05300576 -0.23261190 -0.97112414
vn 0.20696891 0.58787521 -0.78202724
vn 0.72201516 0.37476644 -0.58158767
vn -0.04991040 -0.58998245 -0.80587199
vn 0.02163601 -0.39818701 -0.91704907
vn -0.01213248 -0.69875753 -0.71525570
vn -0.03095654 -0.31832440 -0.94747626
vn 0.01236234 -0.87282051 -0.48788476
vn 0.67639844 -0.38743311 0.62640302
vn 0.98875847 -0.14917763 -0.01013555
vn 0.68056149 -0.06682961 0.72963681
vn 0.99475400 -0.02182325 -0.09994109
vn 0.44033578 -0.44265216 -0.78112961
vn 0.26022455 -0.79678731 0.54535600
vn 0.48128327 -0.82245252 0.30321324
vn 0.89043056 -0.44462019 0.09719211
vn 0.51236294 -0.83033219 -0.21916356
vn 0.69695641 -0.11064704 -0.70852593
vn 0.65086350 -0.59137020 -0.47608612
f 4//4 5//5 1//1
f 22//22 5//5 6//6
f 22//22 7//7 5//5
f 9//9 13//13 8//8
f 13//13 14//14 5//5
f 10//10 2//2 17//17
f 10//10 18//18 3//3
f 18//18 4//4 1//1
f 13//13 37//37 8//8
f 5//5 14//14 1//1
f 2//2 1//1 14//14
f 17//17 2//2 14//14
f 13//13 15//15 14//14
f 41//41 15//15 40//40
f 16//16 17//17 15//15
f 41//41 16//16 15//15
f 14//14 15//15 17//17
f 15//15 13//13 9//9
f 40//40 15//15 9//9
f 10//10 19//19 18//18
f 3//3 18//18 1//1
f 6//6 5//5 20//20
f 11//11 21//21 29//29
f 4//4 20//20 5//5
f 44//44 6//6 20//20
f 22//22 23//23 7//7
f 27//27 24//24 26//26
f 24//24 36//36 23//23
f 28//28 23//23 36//36
f 28//28 7//7 23//23
f 7//7 28//28 13//13
f 30//30 11//11 29//29
f 11//11 31//31 12//12
f 41//41 32//32 16//16
f 22//22 54//54 25//25
f 25//25 26//26 24//24
f 27//27 26//26 35//35
f 40//40 39//39 33//33
f 41//41 40//40 33//33
f 43//43 20//20 129//129
f 22//22 44//44 54//54
f 20//20 43//43 44//44
f 49//49 140//140 35//35
f 51//51 127//127 30//30
f 25//25 137//137 26//26
f 35//35 140//140 46//46
f 46//46 50//50 47//47
f 50//50 45//45 47//47
f 46//46 47//47 35//35
f 35//35 47//47 27//27
f 27//27 51//51 38//38
f 29//29 38//38 51//51
f 30//30 127//127 52//52
f 53//53 45//45 55//55
f 50//50 71//71 72//72
f 56//56 53//53 55//55
f 53//53 47//47 45//45
f 53//53 65//65 59//59
f 59//59 51//51 53//53
f 51//51 47//47 53//53
f 58//58 57//57 69//69
f 58//58 69//69 68//68
f 58//58 60//60 57//57
f 72//72 45//45 50//50
f 140//140 61//61 71//71
f 126//126 64//64 55//55
f 59//59 65//65 66//66
f 67//67 66//66 96//96
f 80//80 82//82 68//68
f 72//72 85//85 126//126
f 89//89 75//75 94//94
f 74//74 75//75 89//89
f 75//75 74//74 77//77
f 87//87 78//78 63//63
f 87//87 63//63 73//73
f 56//56 62//62 63//63
f 66//66 65//65 79//79
f 82//82 80//80 81//81
f 80//80 68//68 67//67
f 125//125 85//85 84//84
f 94//94 86//86 88//88
f 88//88 89//89 94//94
f 74//74 89//89 101//101
f 90//90 104//104 103//103
f 91//91 92//92 102//102
f 92//92 90//90 102//102
f 74//74 76//76 77//77
f 95//95 78//78 87//87
f 78//78 79//79 63//63
f 66//66 79//79 96//96
f 109//109 67//67 96//96
f 97//97 113//113 83//83
f 126//126 98//98 64//64
f 73//73 110//110 87//87
f 89//89 116//116 101//101
f 90//90 103//103 102//102
f 103//103 74//74 101//101
f 76//76 105//105 77//77
f 107//107 93//93 75//75
f 107//107 75//75 77//77
f 86//86 94//94 95//95
f 106//106 107//107 77//77
f 108//108 96//96 78//78
f 96//96 79//79 78//78
f 81//81 80//80 109//109
f 101//101 110//110 100//100
f 100//100 110//110 122//122
f 102//102 101//101 100//100
f 90//90 119//119 104//104
f 77//77 112//112 106//106
f 96//96 108//108 109//109
f 113//113 97//97 112//112
f 98//98 126//126 124//124
f 85//85 124//124 126//126
f 116//116 110//110 101//101
f 117//117 102//102 100//100
f 120//120 119//119 118//118
f 81//81 109//109 107//107
f 112//112 97//97 106//106
f 115//115 120//120 118//118
f 114//114 120//120 115//115
f 114//114 113//113 112//112
f 116//116 87//87 110//110
f 117//117 100//100 123//123
f 120//120 105//105 119//119
f 112//112 105//105 120//120
f 112//112 120//120 114//114
f 90//90 92//92 118//118
f 90//90 118//118 119//119
f 124//124 85//85 125//125
f 111//111 98//98 124//124
f 110//110 99//99 122//122
f 121//121 123//123 100//100
f 100//100 99//99 121//121
f 122//122 99//99 100//100
f 92//92 124//124 125//125
f 98//98 117//117 123//123
f 99//99 110//110 73//73
f 125//125 115//115 118//118
f 107//107 106//106 81//81
f 119//119 105//105 76//76
f 118//118 92//92 125//125
f 98//98 111//111 117//117
f 111//111 92//92 91//91
f 88//88 87//87 116//116
f 121//121 98//98 123//123
f 83//83 113//113 61//61
f 97//97 81//81 106//106
f 109//109 108//108 93//93
f 109//109 93//93 107//107
f 105//105 112//112 77//77
f 92//92 111//111 124//124
f 117//117 111//111 91//91
f 117//117 91//91 102//102
f 89//89 88//88 116//116
f 64//64 98//98 121//121
f 125//125 84//84 115//115
f 114//114 115//115 84//84
f 82//82 83//83 70//70
f 61//61 113//113 114//114
f 78//78 95//95 108//108
f 94//94 108//108 95//95
f 93//93 108//108 94//94
f 86//86 95//95 87//87
f 75//75 93//93 94//94
f 104//104 119//119 76//76
f 102//102 103//103 101//101
f 87//87 88//88 86//86
f 84//84 71//71 114//114
f 81//81 97//97 83//83
f 80//80 67//67 109//109
f 104//104 74//74 103//103
f 99//99 64//64 121//121
f 85//85 72//72 84//84
f 114//114 71//71 61//61
f 70//70 83//83 61//61
f 83//83 82//82 81//81
f 65//65 56//56 63//63
f 79//79 65//65 63//63
f 99//99 62//62 64//64
f 63//63 62//62 73//73
f 104//104 76//76 74//74
f 62//62 99//99 73//73
f 84//84 72//72 71//71
f 61//61 140//140 70//70
f 58//58 68//68 82//82
f 68//68 69//69 67//67
f 69//69 66//66 67//67
f 56//56 55//55 64//64
f 62//62 56//56 64//64
f 140//140 60//60 70//70
f 58//58 82//82 70//70
f 69//69 52//52 127//127
f 127//127 66//66 69//69
f 59//59 66//66 127//127
f 51//51 59//59 127//127
f 126//126 45//45 72//72
f 70//70 60//60 58//58
f 65//65 53//53 56//56
f 55//55 45//45 126//126
f 46//46 140//140 71//71
f 137//137 25//25 54//54
f 69//69 57//57 52//52
f 51//51 27//27 47//47
f 137//137 49//49 26//26
f 54//54 43//43 48//48
f 38//38 24//24 27//27
f 38//38 37//37 36//36
f 50//50 46//46 71//71
f 54//54 44//44 43//43
f 33//33 42//42 32//32
f 30//30 29//29 51//51
f 28//28 37//37 13//13
f 37//37 28//28 36//36
f 36//36 24//24 38//38
f 49//49 35//35 26//26
f 23//23 25//25 24//24
f 22//22 6//6 44//44
f 20//20 4//4 129//129
f 34//34 32//32 42//42
f 33//33 32//32 41//41
f 130//130 33//33 39//39
f 29//29 21//21 37//37
f 21//21 8//8 37//37
f 37//37 38//38 29//29
f 22//22 25//25 23//23
f 34//34 10//10 16//16
f 32//32 34//34 16//16
f 9//9 21//21 12//12
f 21//21 9//9 8//8
f 19//19 129//129 18//18
f 129//129 4//4 18//18
f 19//19 10//10 34//34
f 10//10 3//3 2//2
f 10//10 17//17 16//16
f 12//12 21//21 11//11
f 5//5 7//7 13//13
f 3//3 1//1 2//2
f 9//9 12//12 40//40
f 128//128 19//19 42//42
f 19//19 128//128 129//129
f 129//129 128//128 135//135
f 31//31 142//142 12//12
f 40//40 12//12 39//39
f 130//130 39//39 144//144
f 131//131 133//133 128//128
f 43//43 129//129 135//135
f 128//128 42//42 131//131
f 132//132 48//48 43//43
f 136//136 132//132 135//135
f 48//48 132//132 134//134
f 48//48 138//138 54//54
f 130//130 145//145 42//42
f 54//54 138//138 137//137
f 133//133 145//145 136//136
f 134//134 132//132 151//151
f 137//137 139//139 49//49
f 140//140 141//141 60//60
f 147//147 142//142 31//31
f 142//142 143//143 144//144
f 143//143 130//130 144//144
f 151//151 145//145 143//143
f 145//145 130//130 143//143
f 146//146 138//138 134//134
f 139//139 138//138 146//146
f 137//137 138//138 139//139
f 52//52 148//148 147//147
f 152//152 151//151 143//143
f 149//149 150//150 152//152
f 142//142 149//149 143//143
f 146//146 152//152 139//139
f 60//60 150//150 57//57
f 148//148 150//150 149//149
f 139//139 152//152 141//141
f 150//150 141//141 152//152
f 147//147 148//148 149//149
f 148//148 57//57 150//150
f 60//60 141//141 150//150
f 146//146 151//151 152//152
f 143//143 149//149 152//152
f 142//142 147//147 149//149
f 52//52 57//57 148//148
f 134//134 151//151 146//146
f 141//141 140//140 139//139
f 136//136 145//145 151//151
f 52//52 147//147 30//30
f 134//134 138//138 48//48
f 139//139 140//140 49//49
f 132//132 136//136 151//151
f 142//142 144//144 39//39
f 147//147 31//31 11//11
f 11//11 30//30 147//147
f 135//135 132//132 43//43
f 131//131 145//145 133//133
f 42//42 145//145 131//131
f 42//42 33//33 130//130
f 136//136 135//135 128//128
f 133//133 136//136 128//128
f 12//12 142//142 39//39
f 19//19 34//34 42//42

