# https://github.com/mikedh/trimesh
v -0.02919600 -0.00201600 0.04595400
v -0.02766200 0.03038500 0.04106300
v 0.00910200 0.09156100 -0.02503700
v -0.03859900 0.01320400 0.02047900
v -0.03705300 -0.01985600 -0.01179100
v -0.03230600 0.03985300 0.01169400
v -0.04000800 0.00256800 -0.00075600
v -0.04316300 0.05700800 0.00777300
v -0.05901000 -0.01513600 -0.04885000
v -0.03446500 -0.01466400 0.02439200
v -0.00127500 0.00750700 0.05635500
v -0.05255600 0.03987600 -0.01261800
v -0.05188800 0.03761700 -0.03368800
v -0.05149400 0.05924400 -0.04657900
v -0.03910900 0.01832500 -0.04893800
v -0.03134400 0.05125300 -0.03147400
v -0.05977100 0.02116300 -0.05788100
v -0.02704900 0.05031600 0.00518400
v 0.00738400 -0.03808100 0.06305000
v 0.04045500 -0.08062800 0.02659800
v 0.02788800 -0.10080800 -0.00250600
v 0.00474700 -0.05403500 0.03660500
v 0.02250600 0.09382500 -0.00523700
v -0.01848500 -0.05775400 0.00803100
v -0.03688200 -0.05996800 -0.00650000
v -0.02696700 0.06615200 -0.01281600
v -0.03960000 -0.02846400 -0.04371200
v -0.00004100 0.08871100 0.00012100
v 0.00370700 -0.07939200 -0.01699600
v -0.05369600 -0.03658700 -0.05904400
v -0.01009900 0.02465500 0.05524200
v 0.04927600 -0.11058200 -0.00950900
v -0.00303800 0.04834500 -0.05071600
v 0.07812300 -0.00131100 0.04289200
v -0.04087600 0.00081500 -0.01001000
v 0.00355100 0.04609700 0.05135300
v 0.00791700 -0.07612400 -0.03108300
v -0.00127800 -0.06565200 -0.04104300
v -0.00747600 -0.08477100 -0.04154000
v 0.00020200 -0.01999900 0.05759600
v -0.01498500 -0.05747700 -0.03935000
v 0.05732900 -0.07534400 0.03840900
v -0.00508800 0.08387300 -0.02598400
v 0.00258000 -0.02608900 -0.06049100
v -0.03395200 -0.05292000 -0.05581600
v 0.01252100 0.07134300 -0.04326200
v 0.08427400 -0.04552800 0.03084200
v 0.04735600 -0.06146000 -0.03493800
v 0.06540900 -0.09210500 -0.00395900
v 0.01376800 -0.04425300 -0.05581500
v 0.05073400 0.00680000 0.06645200
v 0.04837400 -0.02822000 -0.05426500
v -0.03365800 0.07897600 -0.02402000
v 0.02678800 0.01614000 0.06780000
v -0.03444500 -0.05418100 -0.01954000
v 0.02145100 0.08961800 0.02068800
v 0.02826100 -0.01326300 -0.06202600
v -0.03485800 -0.02797500 -0.04896600
v -0.01811200 -0.03223000 -0.05503700
v -0.01451300 -0.02596800 0.04935500
v 0.03258400 0.04461100 -0.05290200
v -0.01763200 -0.06650900 -0.00702300
v 0.02348800 0.05692600 0.05618800
v -0.02762700 0.03584200 -0.05003900
v 0.00834700 -0.04217900 0.08009600
v 0.07240900 0.01858000 -0.03866500
v -0.03912100 0.03173500 -0.01694300
v -0.00011300 0.06108100 0.04103300
v -0.01917300 0.06746200 -0.04135300
v 0.08251700 -0.06587500 0.02865300
v -0.02454100 -0.03945100 0.00646000
v -0.04174100 0.07796900 -0.03634800
v 0.01974800 0.12695600 -0.00102900
v 0.06454100 0.00857700 0.05826700
v -0.04158700 -0.02253800 -0.00334300
v -0.01083000 0.08163000 -0.01656300
v -0.05467400 -0.02417400 -0.06297000
v -0.01381200 0.06949600 0.01386500
v -0.04013700 -0.03479100 -0.02963100
v -0.02282900 -0.05274300 0.00752100
v -0.00505500 0.03852800 0.07288300
v 0.00842400 -0.02338600 0.05955200
v 0.02929800 -0.06429600 0.05005400
v -0.03048800 -0.00128200 -0.05748400
v -0.05027500 -0.05018900 -0.05322200
v -0.02317900 0.10134200 -0.02733200
v -0.02749500 0.05145100 -0.03781900
v 0.04518000 0.04433600 0.06267500
v 0.08590900 -0.03298000 0.00180000
v 0.01298500 -0.05550000 0.06515200
v 0.00416500 -0.00698200 -0.06292600
v 0.06815400 0.03900000 0.04877200
v 0.00305100 0.01834200 -0.06161300
v -0.00630500 0.10269700 -0.00418700
v 0.03783900 0.09071100 0.03676900
v -0.04475200 0.01890300 -0.04183600
v 0.05104200 0.07084400 0.05320700
v -0.00295300 -0.04794800 0.03893200
v -0.02342500 -0.07990200 -0.02351100
v -0.03597700 -0.04043700 -0.01688300
v 0.02156100 -0.04376000 0.05336200
v 0.07416200 -0.09194900 0.01208400
v 0.01852900 -0.02710000 0.06226400
v -0.03449700 -0.07276400 -0.04449300
v -0.00021700 -0.06950600 0.00968800
v 0.03636900 -0.08563900 -0.00295200
v 0.02201700 -0.07986200 0.00338300
v 0.00666000 0.04482900 0.07768000
v 0.04601700 0.01259000 -0.05937300
v -0.03688800 -0.04205700 -0.02738900
v 0.04364500 0.11822100 0.01336600
v -0.02186100 0.10086400 -0.03207200
v 0.02878300 -0.09902700 -0.02545200
v 0.04277500 -0.08208100 -0.00762600
v 0.06306300 0.04609300 -0.03686700
v -0.01271900 -0.05521400 0.00699200
v 0.07399700 0.07397100 0.02179700
v 0.00522200 0.01908600 0.05917500
v 0.08034300 0.06206500 0.00499400
v 0.08834100 0.03304800 -0.00029000
v 0.07228700 -0.06841400 0.03718300
v -0.01694300 0.05169400 0.03189700
v -0.02109700 -0.05616600 -0.02602100
v 0.01739400 0.09170800 0.00209300
v 0.00122400 -0.10341600 -0.02723400
v 0.02810200 -0.07886300 -0.02522200
v 0.02681200 -0.05587400 -0.04689900
v 0.01403400 -0.04538400 0.04810600
v 0.02573500 0.10641500 0.01987300
v 0.04182400 0.09611700 -0.00393200
v -0.05106500 -0.00277600 -0.03315800
v 0.08251700 0.02537200 0.03021900
v 0.07435800 -0.06760600 -0.00485800
v 0.04303300 0.07815800 -0.02427300
v 0.06998900 -0.00981200 -0.04281300
v -0.02368400 -0.03303600 0.02906000
v 0.07158200 -0.04623900 -0.02480100
v 0.08699500 0.00342900 -0.01728000
v 0.07687900 0.04003900 -0.02363400
v 0.08011100 0.00782900 -0.03071800
v 0.08654500 0.00720600 0.02313500
v -0.03765000 0.02960200 -0.00138100
v 0.06268300 0.07949500 0.03634200
v 0.04871500 -0.05216800 0.05828100
v 0.01463000 0.03380300 0.06436100
v 0.08925200 0.00601600 0.00271900
v 0.05456300 -0.09797600 0.01138300
v 0.05571000 0.09903800 0.00894300
v 0.06719100 -0.03880700 0.05449600
v -0.01477500 -0.06148000 -0.01085100
v 0.06540800 0.07386700 -0.01358900
v 0.04044400 -0.01379000 0.06720600
vn -0.76580813 -0.08955393 0.63680295
vn -0.74782961 0.34364019 0.56803371
vn 0.40520553 0.46444154 -0.78746590
vn -0.96928969 0.07430743 0.23442676
vn -0.96062913 -0.27339943 -0.04944118
vn -0.89368628 0.41487607 0.17088790
vn -0.99077650 -0.00199551 0.13549149
vn -0.34181293 0.79279383 0.50462051
vn -0.92901844 -0.23711517 0.28407944
vn -0.92951203 -0.28496739 0.23409607
vn -0.33943078 -0.01126285 0.94056361
vn -0.87578956 0.11151418 -0.46963522
vn -0.81619613 0.07987575 0.57222700
vn -0.73134344 0.52641102 -0.43362219
vn 0.05335380 0.29523125 -0.95393495
vn -0.79459589 0.23077153 0.56157090
vn -0.73181504 0.32350468 -0.59982620
vn -0.79776566 0.52969005 0.28809445
vn -0.98430334 -0.10431483 -0.14235641
vn -0.32681769 -0.83518220 0.44233572
vn -0.19969465 -0.52546329 0.82704920
vn -0.49871344 -0.63764825 0.58710274
vn 0.38970867 0.46120366 -0.79713131
vn 0.00136877 -0.48831110 0.87266855
vn -0.83642143 -0.50431849 0.21462074
vn -0.86144854 0.32818590 0.38755700
vn -0.86046146 -0.20128758 0.46806985
vn -0.56961155 0.50698067 0.64692602
vn -0.44551210 -0.54083904 0.71345084
vn -0.70371047 -0.40691600 -0.58241819
vn -0.29259354 0.20093609 0.93488700
vn 0.32034726 -0.91493143 -0.24551601
vn -0.15554101 0.33755985 -0.92836434
vn 0.83879116 0.02975534 0.54363960
vn -0.98555060 0.03770619 0.16513103
vn -0.53000659 0.51909339 0.67054833
vn 0.34004478 -0.41108527 -0.84580048
vn 0.07073456 -0.31817218 -0.94539044
vn 0.19943063 -0.38363134 -0.90169530
vn -0.35820575 -0.18296291 0.91553985
vn 0.10510397 -0.23510044 -0.96627167
vn 0.13628669 -0.70734413 0.69360668
vn 0.11993844 0.34394877 -0.93129695
vn -0.10028305 -0.20196471 -0.97424513
vn 0.16986470 -0.28945361 -0.94199925
vn 0.08432087 0.58472226 -0.80683943
vn 0.93739346 -0.08711901 0.33719992
vn 0.42495420 -0.60047060 -0.67738393
vn 0.58278351 -0.28347678 -0.76158013
vn 0.00655506 -0.41653672 -0.90909526
vn 0.31024260 0.03600850 0.94997522
vn 0.42143689 -0.28656392 -0.86039065
vn -0.69062191 0.23401932 0.68430719
vn -0.12874377 0.05137247 0.99034636
vn -0.37392914 -0.24365821 -0.89487858
vn -0.66451789 0.57697254 0.47488805
vn 0.13402121 -0.10303558 -0.98560742
vn 0.08950889 -0.06728256 -0.99371083
vn -0.14360466 -0.22389098 -0.96397642
vn -0.54287893 -0.38168691 0.74806254
vn 0.22151813 0.38925038 -0.89409947
vn 0.28131369 -0.95564947 -0.08715906
vn -0.24961774 0.44511114 0.85998084
vn -0.14209652 0.30973693 -0.94014446
vn -0.23308281 -0.15224528 0.96046540
vn 0.70373923 0.17065804 -0.68965711
vn -0.98377253 0.15919508 0.08275583
vn -0.52112517 0.55450856 0.64880568
vn -0.04175752 0.27680837 -0.96001741
vn 0.89549012 -0.32463633 0.30448103
vn -0.76149064 -0.21950518 0.60987661
vn -0.79360794 0.53429280 -0.29106296
vn -0.09864879 0.99149425 -0.08489742
vn 0.63414672 0.06977566 0.77005798
vn -0.93529789 -0.31864973 0.15388374
vn -0.70523617 0.38268847 0.59681780
vn -0.39232029 -0.22092347 -0.89290403
vn -0.68711178 0.61420060 0.38811727
vn -0.98145020 -0.19146544 -0.00982290
vn -0.67796886 -0.28076128 0.67936097
vn -0.86031552 0.00099639 0.50976093
vn -0.48976797 -0.03549441 0.87113000
vn -0.29894021 -0.60886046 0.73479499
vn -0.02501506 0.04660908 -0.99859994
vn -0.88435463 -0.40262718 -0.23623768
vn -0.53735953 0.80269517 0.25869907
vn 0.03390552 0.23234232 -0.97204293
vn 0.20063617 0.23681970 0.95061115
vn 0.96756645 -0.16461998 -0.19161271
vn -0.02517090 -0.97478109 0.22173916
vn -0.06576960 -0.03570082 -0.99719597
vn 0.72452315 0.20078193 0.65935788
vn -0.06936155 0.18375679 -0.98052150
vn -0.64395143 0.28056840 0.71176395
vn -0.12996245 0.64224313 0.75540289
vn -0.84754971 -0.00350101 0.53070447
vn 0.29474961 0.47715856 0.82791448
vn -0.45811058 -0.63967674 0.61721015
vn -0.72805768 -0.40789094 0.55096007
vn -0.95045174 -0.25660407 0.17548746
vn 0.12563112 -0.60557999 0.78580512
vn 0.74273181 -0.65453397 0.14119049
vn 0.09780946 0.03302912 0.99465692
vn -0.63963905 -0.65582932 -0.40093613
vn -0.59588432 -0.73942620 0.31332214
vn -0.21571754 -0.62924885 0.74666715
vn -0.37578627 -0.79492587 0.47631664
vn 0.24010617 0.50093213 0.83151430
vn 0.35052508 0.12168339 -0.92861473
vn -0.85525583 -0.41394623 0.31174666
vn 0.46211885 0.87511517 0.14359530
vn -0.16921883 0.70127737 -0.69251357
vn 0.36556346 -0.25509913 -0.89514680
vn 0.49885430 -0.27869536 -0.82065418
vn 0.56420781 0.40543678 -0.71922915
vn -0.26395531 -0.85304976 0.45014854
vn 0.86060235 0.44820679 0.24181453
vn -0.54475429 -0.07284149 0.83542617
vn 0.92183608 0.37524151 -0.09701571
vn 0.97804129 0.19185267 -0.08141127
vn 0.50977525 -0.49519044 0.70350240
vn -0.68483632 0.52796169 0.50225060
vn -0.80759791 -0.37616765 0.45418445
vn -0.55631357 0.56421226 0.61006536
vn -0.28865936 -0.93812755 -0.19129159
vn 0.39249973 -0.43840111 -0.80854711
vn 0.19259263 -0.55911959 -0.80640769
vn -0.61785478 -0.61091818 0.49500954
vn -0.61679263 0.45377085 0.64316317
vn 0.30476493 0.59446665 -0.74412884
vn -0.89021365 -0.01713738 0.45522079
vn 0.90994723 0.15205956 0.38584185
vn 0.78143848 -0.36751747 -0.50426661
vn 0.30313869 0.68089044 -0.66670469
vn 0.71771209 -0.13515082 -0.68309854
vn -0.76500783 -0.54652287 0.34069895
vn 0.75750254 -0.33675573 -0.55927227
vn 0.94396957 -0.04536812 -0.32689935
vn 0.81996120 0.30072347 -0.48706163
vn 0.84849827 0.03752047 -0.52786636
vn 0.96444611 0.03816470 0.26150937
vn -0.92657966 -0.12168415 0.35586949
vn 0.64537735 0.53117865 0.54894200
vn 0.12925541 -0.39675571 0.90877827
vn 0.25442384 0.13827514 0.95715646
vn 0.99989893 -0.01246652 0.00683509
vn -0.18749814 -0.82867602 0.52739027
vn 0.74196558 0.61911034 -0.25727313
vn 0.57850112 -0.17272537 0.79718405
vn -0.36370537 -0.91955392 0.14879176
vn 0.64417657 0.56387753 -0.51679655
vn 0.07654327 -0.12697628 0.98894800
f 72//72 53//53 86//86
f 53//53 76//76 86//86
f 43//43 112//112 3//3
f 1//1 2//2 10//10
f 4//4 10//10 2//2
f 71//71 7//7 75//75
f 86//86 112//112 72//72
f 7//7 10//10 4//4
f 3//3 73//73 23//23
f 5//5 75//75 35//35
f 78//78 28//28 26//26
f 35//35 75//75 7//7
f 8//8 12//12 142//142
f 4//4 6//6 7//7
f 69//69 33//33 87//87
f 136//136 60//60 10//10
f 131//131 17//17 9//9
f 40//40 11//11 60//60
f 31//31 2//2 1//1
f 11//11 31//31 1//1
f 64//64 15//15 14//14
f 2//2 6//6 4//4
f 142//142 12//12 67//67
f 35//35 7//7 142//142
f 142//142 7//7 6//6
f 46//46 134//134 61//61
f 96//96 67//67 13//13
f 96//96 13//13 17//17
f 84//84 17//17 15//15
f 16//16 14//14 13//13
f 130//130 73//73 111//111
f 87//87 14//14 69//69
f 84//84 64//64 93//93
f 93//93 64//64 33//33
f 33//33 69//69 46//46
f 61//61 93//93 33//33
f 86//86 76//76 94//94
f 33//33 46//46 61//61
f 13//13 67//67 16//16
f 18//18 16//16 67//67
f 18//18 26//26 16//16
f 112//112 86//86 94//94
f 78//78 26//26 18//18
f 94//94 76//76 28//28
f 112//112 94//94 73//73
f 9//9 77//77 30//30
f 3//3 46//46 43//43
f 65//65 90//90 101//101
f 19//19 128//128 90//90
f 99//99 125//125 150//150
f 126//126 113//113 125//125
f 116//116 22//22 80//80
f 125//125 32//32 21//21
f 66//66 140//140 135//135
f 104//104 45//45 41//41
f 29//29 150//150 125//125
f 3//3 23//23 46//46
f 5//5 131//131 27//27
f 24//24 25//25 62//62
f 28//28 76//76 26//26
f 74//74 149//149 34//34
f 26//26 76//76 53//53
f 32//32 125//125 113//113
f 127//127 48//48 126//126
f 36//36 122//122 31//31
f 90//90 128//128 101//101
f 27//27 131//131 30//30
f 144//144 152//152 103//103
f 34//34 149//149 47//47
f 7//7 71//71 10//10
f 105//105 20//20 83//83
f 38//38 41//41 50//50
f 69//69 112//112 43//43
f 33//33 64//64 87//87
f 106//106 21//21 32//32
f 81//81 36//36 118//118
f 60//60 11//11 1//1
f 29//29 105//105 116//116
f 104//104 39//39 125//125
f 39//39 104//104 38//38
f 52//52 127//127 50//50
f 108//108 145//145 36//36
f 35//35 131//131 5//5
f 125//125 39//39 37//37
f 100//100 55//55 25//25
f 38//38 104//104 41//41
f 115//115 151//151 139//139
f 40//40 82//82 11//11
f 48//48 127//127 52//52
f 43//43 46//46 69//69
f 78//78 18//18 122//122
f 30//30 45//45 85//85
f 102//102 147//147 32//32
f 122//122 68//68 78//78
f 54//54 152//152 51//51
f 80//80 22//22 98//98
f 37//37 39//39 38//38
f 82//82 103//103 54//54
f 53//53 72//72 14//14
f 57//57 50//50 44//44
f 45//45 30//30 58//58
f 49//49 102//102 32//32
f 36//36 81//81 108//108
f 137//137 48//48 52//52
f 42//42 20//20 147//147
f 50//50 57//57 52//52
f 58//58 59//59 45//45
f 146//146 47//47 89//89
f 54//54 63//63 145//145
f 15//15 64//64 84//84
f 77//77 58//58 30//30
f 142//142 6//6 18//18
f 115//115 109//109 61//61
f 58//58 77//77 84//84
f 55//55 150//150 62//62
f 148//148 151//151 134//134
f 88//88 54//54 51//51
f 116//116 62//62 150//150
f 59//59 41//41 45//45
f 88//88 63//63 54//54
f 1//1 10//10 60//60
f 32//32 147//147 106//106
f 52//52 57//57 109//109
f 18//18 6//6 122//122
f 89//89 135//135 138//138
f 8//8 142//142 18//18
f 63//63 36//36 145//145
f 36//36 68//68 122//122
f 52//52 109//109 135//135
f 17//17 84//84 77//77
f 14//14 72//72 69//69
f 124//124 94//94 28//28
f 73//73 94//94 124//124
f 133//133 102//102 49//49
f 130//130 111//111 148//148
f 66//66 109//109 115//115
f 69//69 72//72 112//112
f 134//134 130//130 148//148
f 50//50 41//41 59//59
f 71//71 136//136 10//10
f 100//100 79//79 110//110
f 82//82 65//65 103//103
f 119//119 120//120 139//139
f 135//135 109//109 66//66
f 68//68 36//36 63//63
f 19//19 65//65 82//82
f 12//12 8//8 18//18
f 12//12 18//18 67//67
f 68//68 56//56 78//78
f 71//71 75//75 80//80
f 95//95 68//68 63//63
f 88//88 74//74 97//97
f 58//58 84//84 59//59
f 25//25 80//80 100//100
f 92//92 97//97 74//74
f 114//114 49//49 32//32
f 78//78 56//56 28//28
f 133//133 70//70 102//102
f 50//50 59//59 44//44
f 97//97 63//63 88//88
f 73//73 130//130 23//23
f 74//74 34//34 92//92
f 92//92 34//34 132//132
f 16//16 53//53 14//14
f 85//85 110//110 27//27
f 85//85 104//104 110//110
f 68//68 95//95 56//56
f 14//14 87//87 64//64
f 148//148 117//117 119//119
f 91//91 44//44 59//59
f 6//6 2//2 122//122
f 105//105 107//107 20//20
f 131//131 35//35 96//96
f 74//74 88//88 51//51
f 59//59 84//84 91//91
f 29//29 21//21 107//107
f 28//28 56//56 124//124
f 17//17 77//77 9//9
f 55//55 62//62 25//25
f 80//80 25//25 24//24
f 42//42 144//144 83//83
f 83//83 20//20 42//42
f 109//109 93//93 61//61
f 92//92 143//143 97//97
f 98//98 71//71 80//80
f 121//121 144//144 42//42
f 91//91 57//57 44//44
f 67//67 96//96 35//35
f 80//80 75//75 5//5
f 92//92 117//117 143//143
f 103//103 152//152 54//54
f 104//104 99//99 123//123
f 96//96 17//17 131//131
f 109//109 57//57 91//91
f 83//83 22//22 105//105
f 102//102 70//70 121//121
f 93//93 109//109 91//91
f 97//97 95//95 63//63
f 83//83 128//128 22//22
f 84//84 93//93 91//91
f 128//128 83//83 101//101
f 145//145 118//118 54//54
f 82//82 128//128 19//19
f 14//14 17//17 13//13
f 80//80 5//5 100//100
f 123//123 110//110 104//104
f 137//137 135//135 89//89
f 81//81 118//118 108//108
f 5//5 79//79 100//100
f 82//82 118//118 11//11
f 45//45 104//104 85//85
f 89//89 47//47 70//70
f 111//111 95//95 143//143
f 27//27 79//79 5//5
f 20//20 107//107 106//106
f 89//89 70//70 133//133
f 36//36 31//31 11//11
f 118//118 36//36 11//11
f 124//124 129//129 73//73
f 40//40 98//98 82//82
f 129//129 56//56 95//95
f 114//114 32//32 113//113
f 119//119 132//132 120//120
f 117//117 132//132 119//119
f 95//95 97//97 143//143
f 126//126 114//114 113//113
f 103//103 65//65 101//101
f 42//42 147//147 102//102
f 117//117 92//92 132//132
f 121//121 149//149 144//144
f 3//3 112//112 73//73
f 118//118 82//82 54//54
f 46//46 23//23 134//134
f 121//121 42//42 102//102
f 89//89 133//133 137//137
f 120//120 146//146 138//138
f 98//98 22//22 82//82
f 116//116 80//80 24//24
f 100//100 150//150 55//55
f 149//149 121//121 70//70
f 118//118 145//145 108//108
f 73//73 129//129 111//111
f 133//133 49//49 114//114
f 100//100 110//110 123//123
f 123//123 150//150 100//100
f 139//139 120//120 138//138
f 98//98 60//60 136//136
f 27//27 30//30 85//85
f 124//124 56//56 129//129
f 110//110 79//79 27//27
f 126//126 37//37 127//127
f 148//148 111//111 143//143
f 82//82 22//22 128//128
f 40//40 60//60 98//98
f 114//114 126//126 48//48
f 111//111 129//129 95//95
f 133//133 114//114 48//48
f 149//149 70//70 47//47
f 9//9 30//30 131//131
f 67//67 35//35 142//142
f 101//101 83//83 144//144
f 135//135 140//140 138//138
f 107//107 105//105 29//29
f 53//53 16//16 26//26
f 125//125 21//21 29//29
f 115//115 134//134 151//151
f 48//48 137//137 133//133
f 122//122 2//2 31//31
f 139//139 138//138 140//140
f 47//47 141//141 34//34
f 139//139 140//140 66//66
f 103//103 101//101 144//144
f 115//115 139//139 66//66
f 151//151 148//148 119//119
f 135//135 137//137 52//52
f 141//141 132//132 34//34
f 106//106 107//107 21//21
f 17//17 14//14 15//15
f 146//146 141//141 47//47
f 134//134 23//23 130//130
f 148//148 143//143 117//117
f 147//147 20//20 106//106
f 120//120 132//132 141//141
f 120//120 141//141 146//146
f 123//123 99//99 150//150
f 89//89 138//138 146//146
f 144//144 149//149 152//152
f 134//134 115//115 61//61
f 19//19 90//90 65//65
f 29//29 116//116 150//150
f 151//151 119//119 139//139
f 125//125 37//37 126//126
f 116//116 24//24 62//62
f 104//104 125//125 99//99
f 98//98 136//136 71//71
f 105//105 22//22 116//116
f 152//152 149//149 51//51
f 37//37 38//38 127//127
f 149//149 74//74 51//51
f 50//50 127//127 38//38

